<svg width="541" height="131" viewBox="0 0 541 131" fill="none" xmlns="http://www.w3.org/2000/svg">
<rect x="2" y="2" width="537" height="127" stroke="#FF2626" stroke-width="4"/>
<path d="M60.5 49L64.2045 60.4012H76.1924L66.494 67.4476L70.1985 78.8488L60.5 71.8024L50.8015 78.8488L54.506 67.4476L44.8076 60.4012H56.7955L60.5 49Z" fill="#FF2626"/>
<path d="M103.14 42.64H142.08V52.48H129V85H116.22V52.48H103.14V42.64ZM170.849 42.64H194.069C195.929 42.64 197.789 42.7 199.589 42.82C200.549 42.88 203.909 43.06 207.089 44.92C209.549 46.36 212.069 49.48 212.069 54.46C212.069 55.06 212.129 59.02 209.969 61.96C208.409 63.94 206.249 65.2 205.889 65.44C206.789 65.98 208.109 66.52 209.129 68.56C209.369 68.98 209.489 69.4 209.669 69.88C209.849 70.42 210.029 71.02 210.149 71.56C210.449 72.82 210.509 74.08 210.689 75.34C211.469 80.38 212.249 82.3 213.509 85H200.189C199.589 83.62 198.929 82.06 198.449 79.12C198.209 77.62 198.089 76.18 197.669 74.74C197.429 74.02 197.309 73.6 197.129 73.3C196.349 71.92 194.729 71.44 194.369 71.32C193.529 71.14 192.329 71.14 192.149 71.08H183.569V85H170.849V42.64ZM183.569 52.48V61.54H192.509C194.969 61.42 196.349 61.42 197.429 60.7C198.509 60.04 199.409 58.96 199.409 56.98C199.409 56.68 199.409 56.02 199.169 55.3C198.389 52.9 196.289 52.6 194.549 52.48H183.569ZM244.948 42.64H257.728V66.52C257.728 67.06 257.728 67.54 257.788 68.08C258.028 70.12 258.568 71.26 259.168 72.16C259.588 72.88 260.008 73.18 260.368 73.54C260.668 73.78 261.028 74.08 261.628 74.44C262.228 74.74 263.008 74.98 263.128 75.04C264.028 75.34 265.168 75.7 267.148 75.7C270.208 75.7 272.128 74.8 273.448 73.66C273.928 73.24 274.888 72.28 275.428 70.84C275.968 69.52 276.088 68.32 276.208 65.74V42.64H288.928V68.62C288.868 69.76 288.748 70.9 288.628 71.98C287.968 76.54 286.348 79.06 284.068 81.16C280.828 84.04 276.088 85.72 268.648 86.08C267.928 86.08 267.148 86.14 266.428 86.14C265.588 86.14 255.988 86.38 250.228 81.34C248.908 80.2 247.948 79 247.588 78.46C247.108 77.8 246.568 76.84 246.088 75.28C245.248 73 245.008 71.38 244.948 66.94V42.64ZM360.059 54.64L347.159 55.48C346.979 54.76 346.799 54.28 346.199 53.56C345.779 53.08 345.719 53.02 345.479 52.84C345.299 52.72 345.119 52.66 344.939 52.48C344.639 52.36 344.339 52.18 344.099 52.06C343.319 51.7 341.339 51.22 339.119 51.22C335.819 51.22 332.639 52.18 332.639 54.4C332.639 54.7 332.639 55.3 333.359 55.9C334.379 56.74 336.959 57.1 337.919 57.28L343.319 58C344.999 58.24 346.679 58.48 348.299 58.84C352.499 59.8 354.719 61 356.639 62.56C357.299 63.16 357.779 63.64 357.959 63.82C359.939 66.1 360.539 69.22 360.539 71.74C360.539 72.52 360.479 76.18 358.379 79.24C357.959 79.9 356.939 81.1 355.439 82.24C352.259 84.64 347.699 86.2 340.439 86.2C338.999 86.2 333.059 86.26 327.779 84.04C326.939 83.68 326.039 83.26 325.259 82.72C324.659 82.36 324.119 81.94 323.639 81.58C323.459 81.4 323.279 81.28 323.099 81.16C322.859 80.98 322.619 80.68 322.379 80.44C321.839 79.84 321.479 79.54 320.699 78.34C319.979 77.26 319.139 75.7 318.479 73.12C318.359 72.7 318.359 72.34 318.239 71.92C318.179 71.68 318.119 71.44 317.999 71.2L330.839 70.42C331.019 70.9 331.379 72.22 332.459 73.42C335.339 76.48 340.739 76.24 340.859 76.24C342.239 76.24 344.459 76.06 345.839 75.28C347.279 74.5 347.459 73.36 347.459 72.82C347.459 72.7 347.399 72.1 346.979 71.5C346.259 70.42 344.699 69.94 342.419 69.52C340.679 69.22 338.939 68.92 337.199 68.68C332.999 68.02 326.459 67.18 322.679 63.7C320.699 61.9 319.319 59.56 319.319 55.48C319.319 54.58 319.379 53.68 319.499 52.78C319.619 51.82 320.099 49.72 322.019 47.44C323.939 45.1 326.819 43.84 327.359 43.6C330.239 42.34 333.779 41.44 340.079 41.44C341.159 41.44 348.419 41.2 353.879 44.98C354.119 45.1 354.899 45.7 355.679 46.42C356.459 47.2 357.899 48.64 359.039 51.16C359.519 52.3 359.819 53.5 360.059 54.64ZM390.448 42.64H403.048V58.18C404.008 57.22 404.788 56.56 405.628 55.84C406.348 55.18 407.248 54.34 408.088 53.62C408.448 53.26 408.808 53.02 409.108 52.72C409.588 52.24 410.068 51.82 410.488 51.46C412.108 50.02 413.968 48.34 415.708 46.78C417.208 45.4 418.768 44.14 420.268 42.64H437.128L416.668 60.46C417.028 60.76 417.328 61.06 417.628 61.36C418.108 61.9 418.528 62.44 419.068 63.04C419.488 63.58 420.028 64.18 420.508 64.72C422.608 67.12 424.588 69.46 426.628 71.8C427.888 73.24 429.208 74.8 430.468 76.24C431.188 77.08 431.968 78.04 432.688 78.88C433.228 79.54 433.768 80.08 434.308 80.74C435.088 81.58 435.748 82.42 436.528 83.32C436.948 83.86 437.488 84.46 437.968 85H422.248C420.028 82.42 417.928 79.96 415.768 77.38C415.348 76.9 414.988 76.48 414.568 76C414.208 75.58 413.788 75.1 413.368 74.62C412.948 74.2 412.588 73.72 412.168 73.3C411.508 72.52 410.968 71.8 410.308 71.14C410.008 70.78 409.708 70.36 409.348 70C408.748 69.34 408.268 68.68 407.788 68.02L403.108 72.22V85H390.448V42.64Z" fill="white"/>
<path d="M480.5 49L484.204 60.4012H496.192L486.494 67.4476L490.198 78.8488L480.5 71.8024L470.802 78.8488L474.506 67.4476L464.808 60.4012H476.796L480.5 49Z" fill="#FF2626"/>
</svg>
