<svg width="4581" height="1624" viewBox="0 0 4581 1624" fill="none" xmlns="http://www.w3.org/2000/svg">
<path d="M1073.74 187L1348.79 554.773L1072 853.787H1134.29L1376.62 591.995L1572.42 853.787H1784.41L1493.88 465.328L1751.51 187H1689.22L1466.05 428.105L1285.73 187H1073.74ZM1165.35 232.886H1262.73L1692.79 807.894H1595.4L1165.35 232.886Z" fill="white"/>
<path d="M2339 1541.69H2349.7C2350.08 1545.16 2351.23 1547.48 2352.76 1548.64C2354.29 1550.19 2356.96 1550.57 2360.4 1550.57C2366.9 1550.57 2369.96 1547.87 2369.96 1542.85C2369.96 1540.53 2369.19 1538.6 2368.05 1537.44C2366.9 1536.28 2364.61 1535.51 2361.93 1534.74L2356.2 1533.96C2345.5 1532.03 2340.15 1526.63 2340.15 1517.36C2340.15 1511.95 2342.06 1507.31 2345.5 1504.22C2349.32 1501.13 2353.91 1499.2 2360.02 1499.2C2365.75 1499.2 2370.34 1500.75 2373.78 1503.84C2377.22 1506.93 2379.13 1511.56 2379.51 1516.97H2368.81C2368.81 1513.88 2367.66 1511.95 2366.14 1510.79C2364.61 1509.63 2362.31 1508.86 2359.64 1508.86C2356.58 1508.86 2354.67 1509.63 2353.14 1510.79C2351.61 1511.95 2350.85 1513.88 2350.85 1516.58C2350.85 1518.51 2351.61 1520.45 2352.76 1521.6C2353.91 1522.76 2356.2 1523.54 2358.87 1524.31L2364.99 1525.47C2375.31 1527.4 2380.28 1532.81 2380.28 1542.46C2380.28 1548.64 2378.37 1553.28 2374.54 1556.37C2370.72 1559.46 2365.75 1561 2359.26 1561C2352.76 1561 2347.79 1559.46 2344.35 1556.37C2341.29 1552.5 2339.38 1547.87 2339 1541.69ZM2432.64 1510.02V1560.23H2421.17V1510.02H2405.88V1499.98H2447.54V1510.02H2432.64ZM2480.03 1548.25L2476.59 1559.84H2464.74L2485.76 1499.98H2494.94L2515.96 1559.84H2504.11L2500.67 1548.25H2480.03ZM2490.35 1515.81L2483.09 1538.98H2497.61L2490.35 1515.81ZM2554.18 1535.9V1560.23H2543.09V1500.36H2565.64C2571.38 1500.36 2575.96 1501.91 2579.4 1505C2582.84 1508.09 2584.75 1512.72 2584.75 1518.13C2584.75 1521.99 2583.99 1525.47 2582.08 1528.17C2580.17 1530.87 2577.49 1532.81 2574.43 1534.35L2587.43 1560.61H2574.43L2563.35 1536.28H2554.18V1535.9ZM2564.88 1526.24C2567.55 1526.24 2569.47 1525.47 2570.99 1523.92C2572.52 1522.38 2573.29 1520.45 2573.29 1517.74C2573.29 1515.42 2572.52 1513.49 2570.99 1511.95C2569.47 1510.4 2567.55 1509.63 2564.88 1509.63H2554.18V1525.85H2564.88V1526.24ZM2626.41 1499.98V1550.19H2652.4V1560.23H2615.33V1500.36H2626.41V1499.98ZM2692.92 1499.98V1560.23H2681.83V1500.36H2692.92V1499.98ZM2769.74 1560.23H2758.65L2736.87 1522.76V1560.23H2725.02V1500.36H2736.1L2757.89 1537.83V1500.36H2768.97V1560.23H2769.74ZM2812.54 1543.23V1559.84H2801.46V1499.98H2812.54V1527.78L2833.18 1499.98H2846.56L2827.45 1523.92L2848.09 1559.84H2835.09L2820.57 1533.19L2812.54 1543.23Z" fill="white"/>
<path d="M2355.8 1427.3L2340.91 1441.8H2472.61C2827.65 1085.24 3338.82 1021.87 3469 1011.18V1010.8C2758.55 1051.65 2430.24 1355.53 2355.8 1427.3Z" fill="white"/>
<path d="M2717.7 1441.8H2847.88L2667.69 1308.95C2645.93 1323.84 2623.41 1340.64 2602.03 1357.44L2717.7 1441.8ZM2479.87 1169.23H2349.69L2502.39 1281.08C2524.53 1266.2 2550.11 1250.16 2573.78 1236.42L2479.87 1169.23Z" fill="white"/>
<path d="M426.009 738.204L516.503 229.169C602.771 229.169 629.986 238.649 633.936 277.24C633.936 277.24 691.843 255.673 721.034 211.828C607.116 159.056 492.685 156.686 492.685 156.686L425.89 238.017H426.048L359.254 156.686C359.254 156.686 244.783 159.056 130.905 211.828C160.095 255.634 218.002 277.24 218.002 277.24C221.952 238.609 249.128 229.169 334.843 229.09L426.088 738.204H426.009Z" fill="white"/>
<path d="M425.968 133.184C518.042 132.473 623.468 147.443 731.342 194.448C745.759 168.497 749.433 157.042 749.433 157.042C631.486 110.353 521.044 94.395 425.928 94C330.852 94.395 220.41 110.353 102.463 157.042C102.463 157.042 107.717 171.183 120.594 194.448C228.468 147.443 333.893 132.473 425.968 133.184Z" fill="white"/>
<path d="M236.292 939.457H305.219C314.818 937.561 321.928 929.108 323.942 920.931H217.569C219.544 929.108 226.812 937.561 236.292 939.457Z" fill="white"/>
<path d="M236.292 975.994H305.219C314.818 974.098 321.928 965.645 323.942 957.469H217.569C219.544 965.645 226.812 974.098 236.292 975.994Z" fill="white"/>
<path d="M236.292 1013.52H305.219C314.818 1011.62 321.928 1003.17 323.942 994.994H217.569C219.544 1003.17 226.812 1011.62 236.292 1013.52Z" fill="white"/>
<path d="M680.35 939.496H749.277C758.876 937.6 765.986 929.147 768 920.971H661.627C663.641 929.147 670.83 937.6 680.35 939.496Z" fill="white"/>
<path d="M57 921.129C59.054 929.226 66.0455 937.442 75.6835 939.536H104.676L106.138 940.128V1013.32H124.268V940.128L125.888 939.536H154.92C164.637 937.047 171.471 929.187 173.525 921.129V920.931H57V921.129Z" fill="white"/>
<path d="M610.119 1013.52C619.164 1009.69 623.983 1003.05 625.879 995.309H545.457V921.01L527.485 921.05V1013.52H610.119Z" fill="white"/>
<path d="M393.46 939.259H457.134C466.732 936.494 474.79 929.147 476.765 921.05H375.606V975.678H458.398V994.875H393.46C383.269 997.759 374.658 1004.59 370.353 1013.64L375.606 1013.52H476.173V957.548H393.46V939.259Z" fill="white"/>
<path d="M664.431 957.587V1013.52H682.364V976.31H747.618V1013.52H765.511V957.706L664.431 957.587Z" fill="white"/>
<path d="M2143.15 230.837H2204.46V224.494L2193.63 223.612C2190.52 223.377 2188.55 222.466 2187.73 220.881C2186.73 219.589 2186.23 217.268 2186.23 213.92V113.582H2194.69C2203.5 113.582 2209.52 115.314 2212.75 118.779C2216.04 122.655 2218.62 129.204 2220.5 138.425H2226.84V106.006H2120.77V138.425H2127.03C2129.09 129.204 2131.76 122.655 2135.05 118.779C2138.28 115.314 2144.21 113.582 2152.84 113.582H2161.39V213.922C2161.39 217.27 2161 219.59 2160.24 220.881C2159.3 222.466 2157.22 223.377 2153.99 223.612L2143.15 224.494V230.837ZM2365.37 172.958H2375.15C2384.9 172.723 2391.04 177.597 2393.56 187.582C2394.27 190.577 2395.09 194.541 2396.03 199.475C2396.91 204.291 2397.94 209.019 2399.11 213.658C2401.99 225.346 2411.01 231.072 2426.16 230.837H2440.08V224.494C2436.49 224.141 2433.56 222.937 2431.27 220.881C2426.33 216.477 2423.31 209.635 2422.19 200.357C2421.72 196.48 2421.08 192.868 2420.26 189.52C2419.37 186.289 2418.05 183.294 2416.29 180.534C2414.59 177.773 2412.24 175.365 2409.24 173.309C2406.25 171.254 2402.4 169.669 2397.7 168.554V168.201C2406.69 166.674 2413.97 163.268 2419.55 157.982C2424.95 152.578 2427.72 145.765 2427.83 137.543C2427.95 128.558 2424.92 121.04 2418.76 114.99C2412.42 109.118 2401.23 106.123 2385.2 106.006H2325.55V112.349C2332.37 112.465 2336.62 113.111 2338.33 114.286C2339.91 115.519 2340.65 118.456 2340.53 123.096V213.656C2340.65 218.12 2339.91 221.028 2338.33 222.378C2336.62 223.553 2332.37 224.257 2325.55 224.492V230.835H2380.35V224.492C2373.77 224.257 2369.57 223.553 2367.75 222.378C2366.05 221.028 2365.26 218.12 2365.37 213.656L2365.37 172.958ZM2365.37 165.382V121.333C2365.25 118.455 2365.99 116.4 2367.57 115.167C2369.1 114.11 2372.39 113.582 2377.44 113.582C2380.73 113.582 2383.81 113.934 2386.69 114.639C2389.69 115.519 2392.27 116.899 2394.44 118.779C2399.03 122.655 2401.37 129.409 2401.49 139.042C2401.73 156.366 2393.3 165.146 2376.21 165.382H2365.37ZM2647.59 123.096C2647.47 118.456 2648.26 115.519 2649.96 114.286C2651.79 113.111 2655.98 112.465 2662.56 112.349V106.006H2607.77V112.349C2614.64 112.465 2618.9 113.111 2620.54 114.286C2622.13 115.519 2622.86 118.456 2622.74 123.096V188.287C2622.74 192.868 2622.45 197.36 2621.86 201.765C2621.1 206.111 2619.78 210.163 2617.9 213.922C2615.96 217.505 2613.29 220.383 2609.88 222.555C2606.3 224.846 2601.81 225.991 2596.4 225.991C2591.24 225.991 2586.89 224.846 2583.36 222.555C2580.02 220.383 2577.32 217.505 2575.26 213.922C2573.32 210.281 2572 206.17 2571.3 201.588C2570.47 197.301 2570.06 192.868 2570.06 188.287V123.096C2569.94 118.456 2570.71 115.519 2572.35 114.286C2574.17 113.111 2578.4 112.465 2585.04 112.349V106.006H2530.16V112.349C2537.03 112.465 2541.31 113.111 2543.02 114.286C2544.54 115.519 2545.25 118.456 2545.13 123.096V187.934C2545.13 198.976 2546.95 207.873 2550.59 214.626C2554.65 221.557 2560.64 226.432 2568.57 229.251C2576.43 232.129 2585.71 233.567 2596.4 233.567C2606.86 233.567 2615.99 232.129 2623.8 229.251C2631.61 226.197 2637.63 221.264 2641.86 214.451C2645.44 207.697 2647.35 198.858 2647.59 187.934V123.096ZM2762.51 230.837H2805.67V224.494L2796.07 223.613C2791.26 223.261 2788.67 220.265 2788.32 214.627C2787.61 209.048 2787.26 200.385 2787.26 188.638V123.274H2787.79L2829.29 227.932H2838.09L2879.06 123.274H2879.59V213.656C2879.7 218.12 2879 221.028 2877.47 222.378C2875.77 223.553 2871.48 224.257 2864.61 224.492V230.835H2918.61V224.492C2911.98 224.257 2907.75 223.553 2905.93 222.378C2904.28 221.028 2903.52 218.12 2903.64 213.656V123.096C2903.52 118.456 2904.28 115.519 2905.93 114.286C2907.75 113.111 2911.98 112.465 2918.61 112.349V106.006H2876.24L2841.35 192.955H2841L2806.03 106.006H2762.16V112.349C2769.03 112.465 2773.32 113.111 2775.02 114.286C2776.55 115.519 2777.25 118.456 2777.13 123.096V188.637C2777.13 200.677 2776.84 209.34 2776.25 214.626C2775.67 220.381 2773.26 223.435 2769.03 223.788L2762.51 224.492L2762.51 230.837ZM3060.32 120.276C3060.2 117.75 3060.93 115.93 3062.52 114.815C3063.93 113.993 3067.1 113.582 3072.03 113.582C3079.37 113.582 3085.39 115.873 3090.09 120.454C3094.67 125.269 3097.02 132.785 3097.14 143.004C3097.14 151.638 3095.02 158.715 3090.8 164.236C3086.51 170.051 3079.96 173.016 3071.15 173.133C3066.92 173.252 3064.04 172.812 3062.52 171.814C3060.93 170.873 3060.2 168.788 3060.32 165.558V120.276ZM3020.5 230.837H3078.2V224.494C3070.15 224.259 3065.1 223.554 3063.05 222.38C3061.11 221.029 3060.2 218.122 3060.32 213.658V180.711H3070.62C3077.73 180.711 3084.1 180.094 3089.74 178.861C3095.38 177.803 3100.19 176.247 3104.19 174.191C3109.59 171.43 3114.14 167.466 3117.84 162.298C3121.48 157.13 3123.36 150.522 3123.48 142.476C3123.13 128.029 3118.19 118.28 3108.68 113.229C3099.52 108.296 3087.92 105.887 3073.88 106.004H3020.5V112.349C3027.31 112.465 3031.57 113.111 3033.27 114.286C3034.86 115.519 3035.59 118.456 3035.47 123.096V213.656C3035.59 218.12 3034.86 221.028 3033.27 222.378C3031.57 223.553 3027.31 224.257 3020.5 224.492V230.837Z" fill="white"/>
<path d="M2120.46 269.388H3126.41V266.735H2120.43L2120.46 269.388ZM2120.39 370.37H3126.33V367.718H2120.36L2120.39 370.37Z" fill="white"/>
<path d="M2148.31 312.488H2146.28C2145.27 309.41 2144.65 307.667 2144.42 307.259C2144.2 306.85 2143.88 306.565 2143.48 306.406C2143.07 306.231 2141.77 306.143 2139.58 306.143H2137.46V326.578C2137.46 329.116 2137.55 330.647 2137.72 331.172C2137.81 331.449 2138.02 331.676 2138.36 331.852C2138.71 332.011 2140.03 332.295 2142.34 332.704V334.323C2137.89 334.162 2135.03 334.082 2133.76 334.082C2132.04 334.082 2129.41 334.162 2125.86 334.323V332.704C2128.2 332.295 2129.58 331.974 2130.02 331.741C2130.31 331.581 2130.51 331.318 2130.61 330.954C2130.73 330.575 2130.79 329.043 2130.79 326.36V306.142H2127.11C2125.87 306.142 2125.05 306.244 2124.64 306.449C2124.25 306.653 2123.92 307.025 2123.65 307.565C2123.26 308.383 2122.71 310.024 2121.99 312.49H2120C2120.25 310.344 2120.4 308.863 2120.46 308.047C2120.52 307.23 2120.58 305.64 2120.66 303.276C2126.43 303.437 2132.08 303.503 2137.59 303.474C2142.26 303.43 2145.61 303.364 2147.65 303.276C2147.67 306.092 2147.89 309.162 2148.31 312.488ZM2166.06 304.896V303.276C2168.7 303.437 2171.38 303.517 2174.11 303.517C2176.95 303.517 2179.77 303.437 2182.56 303.276V304.896C2180.34 305.275 2179.03 305.552 2178.64 305.728C2178.26 305.888 2177.99 306.144 2177.83 306.495C2177.68 306.843 2177.61 307.908 2177.61 309.687L2177.63 311.198L2177.61 316.82C2179.68 316.893 2181.9 316.929 2184.26 316.929C2186.39 316.929 2188.25 316.893 2189.84 316.822L2189.8 309.053C2189.8 307.668 2189.72 306.8 2189.56 306.45C2189.4 306.099 2189.09 305.837 2188.64 305.662C2188.29 305.516 2187.04 305.26 2184.9 304.895V303.276C2187.71 303.437 2190.3 303.517 2192.66 303.517C2194.88 303.517 2197.79 303.437 2201.39 303.276V304.896L2197.91 305.64C2197.54 305.743 2197.27 305.866 2197.1 306.012C2196.96 306.158 2196.85 306.34 2196.78 306.559C2196.63 307.04 2196.54 308.549 2196.52 311.087C2196.48 315.114 2196.47 317.739 2196.47 318.964C2196.47 323.953 2196.51 327.628 2196.58 329.991C2196.61 330.778 2196.79 331.333 2197.13 331.654C2197.46 331.96 2198.6 332.267 2200.54 332.574L2201.39 332.704V334.323C2198.32 334.162 2195.57 334.082 2193.17 334.082C2190.79 334.082 2188.03 334.162 2184.9 334.323V332.704L2188.57 331.96C2189.01 331.814 2189.32 331.595 2189.49 331.304C2189.68 330.997 2189.77 330.319 2189.77 329.27L2189.84 319.621L2183.82 319.534C2183.55 319.534 2181.48 319.563 2177.61 319.621C2177.63 325.586 2177.67 329.152 2177.74 330.319C2177.79 330.947 2177.97 331.407 2178.29 331.698C2178.62 331.99 2179.73 332.274 2181.61 332.551C2181.82 332.581 2182.13 332.632 2182.56 332.704V334.323C2179.32 334.162 2176.41 334.082 2173.85 334.082C2171.21 334.082 2168.61 334.162 2166.06 334.323V332.704C2168.07 332.311 2169.29 332.041 2169.71 331.894C2170.14 331.749 2170.43 331.523 2170.61 331.216C2170.8 330.895 2170.89 330.202 2170.89 329.138L2170.98 320.606C2170.98 316.157 2170.96 312.358 2170.92 309.207C2170.9 307.661 2170.78 306.691 2170.54 306.297C2170.41 306.048 2170.18 305.851 2169.84 305.706C2169.52 305.56 2168.26 305.29 2166.06 304.896Z" fill="white"/>
<path d="M2218.55 304.896V303.276C2222.07 303.452 2225.89 303.54 2230.01 303.54C2234.8 303.54 2239.73 303.452 2244.81 303.276C2244.85 306.34 2245.03 309.002 2245.35 311.262H2243.49C2243.32 310.796 2243.19 310.439 2243.12 310.19C2242.4 308.104 2241.84 306.894 2241.44 306.559C2241.03 306.224 2240.11 306.056 2238.68 306.056H2230.32C2230.2 308.521 2230.13 312.101 2230.1 316.799L2233.91 316.841C2235.89 316.841 2237.11 316.652 2237.56 316.274C2238.03 315.879 2238.52 314.573 2239.03 312.356H2240.84C2240.68 314.501 2240.6 316.39 2240.6 318.024C2240.6 319.585 2240.68 321.532 2240.84 323.866H2239.03C2238.62 321.503 2238.23 320.147 2237.85 319.796C2237.47 319.445 2236.32 319.27 2234.41 319.27H2230.13V331.5H2238.83C2239.8 331.5 2240.44 331.442 2240.76 331.325C2241.27 331.136 2241.74 330.801 2242.16 330.319C2243.05 329.341 2244.09 327.795 2245.29 325.68H2247.21C2246.37 328.073 2245.46 330.954 2244.48 334.323C2239.5 334.162 2234.3 334.082 2228.88 334.082C2226.41 334.082 2222.97 334.162 2218.55 334.323V332.704C2220.97 332.267 2222.36 331.916 2222.71 331.654C2223.19 331.318 2223.43 330.472 2223.43 329.116V328.372L2223.48 319.708V312.707L2223.45 309.469C2223.45 307.909 2223.37 306.939 2223.21 306.559C2223.05 306.18 2222.74 305.881 2222.27 305.662C2221.82 305.443 2220.58 305.187 2218.55 304.895L2218.55 304.896Z" fill="white"/>
<path d="M2320.58 312.488H2318.55C2317.54 309.41 2316.92 307.667 2316.69 307.259C2316.47 306.85 2316.16 306.565 2315.75 306.406C2315.34 306.231 2314.04 306.143 2311.85 306.143H2309.73V326.578C2309.73 329.116 2309.82 330.647 2309.99 331.172C2310.08 331.449 2310.29 331.676 2310.63 331.852C2310.98 332.011 2312.3 332.295 2314.61 332.704V334.323C2310.16 334.162 2307.3 334.082 2306.03 334.082C2304.31 334.082 2301.68 334.162 2298.13 334.323V332.704C2300.47 332.295 2301.85 331.974 2302.29 331.741C2302.58 331.581 2302.78 331.318 2302.88 330.954C2303 330.575 2303.06 329.043 2303.06 326.36V306.142H2299.38C2298.14 306.142 2297.32 306.244 2296.91 306.449C2296.52 306.653 2296.19 307.025 2295.92 307.565C2295.53 308.383 2294.98 310.024 2294.26 312.49H2292.27C2292.52 310.344 2292.67 308.863 2292.73 308.047C2292.79 307.23 2292.85 305.64 2292.93 303.276C2298.7 303.437 2304.35 303.503 2309.86 303.474C2314.53 303.43 2317.88 303.364 2319.93 303.276C2319.94 306.092 2320.16 309.162 2320.58 312.488ZM2338.24 304.896V303.276C2343.17 303.437 2346.08 303.517 2346.97 303.517C2347.92 303.517 2349.29 303.496 2351.09 303.453C2352.88 303.395 2354.2 303.365 2355.04 303.365C2357.22 303.365 2358.91 303.643 2360.12 304.197C2361.33 304.751 2362.3 305.633 2363.03 306.843C2363.77 308.054 2364.15 309.403 2364.15 310.891C2364.15 312.159 2363.88 313.384 2363.36 314.567C2362.83 315.733 2362.13 316.725 2361.26 317.542C2360.69 318.082 2359.78 318.665 2358.52 319.291C2359.52 320.999 2360.97 323.414 2362.88 326.535C2364.28 328.824 2365.19 330.195 2365.61 330.647C2366.05 331.099 2366.52 331.45 2367.01 331.698C2367.77 332.048 2369.16 332.383 2371.17 332.704V334.323C2368.69 334.162 2366.67 334.082 2365.11 334.082C2363.46 334.082 2361.43 334.162 2359.03 334.323C2357.25 330.224 2354.97 325.535 2352.18 320.256C2351.35 320.225 2350.48 320.167 2349.57 320.08L2349.64 329.181C2349.67 330.305 2349.77 331.005 2349.93 331.282C2350.09 331.544 2350.31 331.733 2350.6 331.85C2350.81 331.952 2352.11 332.237 2354.52 332.704V334.323C2351.12 334.162 2348.39 334.082 2346.34 334.082C2344.31 334.082 2341.61 334.162 2338.24 334.323V332.704C2340.72 332.252 2342.11 331.902 2342.42 331.654C2342.74 331.406 2342.95 330.918 2343.03 330.189C2343.08 329.794 2343.11 326.053 2343.12 318.964L2343.1 312.445C2343.1 309.381 2343.04 307.536 2342.92 306.909C2342.84 306.457 2342.63 306.121 2342.31 305.903C2342 305.669 2340.98 305.399 2339.23 305.093L2338.24 304.896ZM2349.6 317.608C2350.33 317.637 2350.87 317.651 2351.22 317.651C2353.26 317.651 2354.76 317.17 2355.72 316.208C2356.7 315.23 2357.19 313.749 2357.19 311.765C2357.19 309.899 2356.73 308.478 2355.81 307.501C2354.89 306.509 2353.64 306.013 2352.07 306.013C2351.43 306.013 2350.6 306.064 2349.57 306.166L2349.6 317.608ZM2385.55 304.896V303.276C2388.96 303.437 2391.7 303.517 2393.75 303.517C2395.81 303.517 2398.51 303.437 2401.87 303.276V304.896C2399.73 305.246 2398.38 305.545 2397.84 305.794C2397.49 305.939 2397.26 306.15 2397.14 306.427C2397 306.792 2396.92 307.755 2396.92 309.316V320.517C2396.92 323.405 2397.08 325.367 2397.41 326.403C2397.81 327.773 2398.6 328.875 2399.77 329.707C2400.94 330.538 2402.58 330.954 2404.71 330.954C2407.06 330.954 2408.83 330.48 2410.03 329.532C2411.23 328.569 2411.99 327.307 2412.33 325.746C2412.68 324.186 2412.85 321.509 2412.85 317.717C2412.85 316.842 2412.79 314.377 2412.68 310.322C2412.6 308.076 2412.5 306.757 2412.35 306.363C2412.26 306.129 2412.11 305.946 2411.89 305.815C2411.61 305.626 2410.67 305.378 2409.05 305.071C2408.86 305.027 2408.57 304.969 2408.19 304.896V303.276C2411.27 303.437 2413.45 303.517 2414.73 303.517C2416.25 303.517 2418.24 303.437 2420.69 303.276V304.896C2418.47 305.305 2417.19 305.634 2416.84 305.881C2416.48 306.129 2416.27 306.493 2416.2 306.975C2416.07 307.792 2415.98 311.504 2415.94 318.112C2415.91 321.904 2415.81 324.39 2415.65 325.571C2415.41 327.19 2415 328.51 2414.45 329.532C2413.91 330.538 2413.11 331.472 2412.04 332.332C2410.99 333.193 2409.83 333.82 2408.54 334.214C2406.85 334.725 2405.04 334.981 2403.12 334.981C2399.86 334.981 2397.28 334.513 2395.37 333.579C2393.46 332.631 2392.13 331.398 2391.37 329.882C2390.62 328.35 2390.25 326.118 2390.25 323.186V309.665C2390.25 307.93 2390.16 306.836 2389.99 306.383C2389.86 306.091 2389.62 305.873 2389.29 305.728C2388.97 305.581 2387.72 305.304 2385.55 304.896H2385.55ZM2437.58 304.896V303.276C2440.19 303.437 2442.34 303.517 2444.03 303.517C2445.84 303.517 2447.8 303.437 2449.92 303.276C2450.53 304.939 2451.34 306.908 2452.33 309.184C2455.04 315.31 2457.44 320.51 2459.52 324.784L2465.04 312.881C2465.91 310.942 2466.61 309.353 2467.12 308.113C2467.64 306.858 2468.27 305.246 2469 303.276C2471.77 303.437 2473.78 303.517 2475.04 303.517C2476.12 303.517 2478.07 303.437 2480.9 303.276V304.896C2480.46 304.983 2480.13 305.042 2479.91 305.071C2478.03 305.392 2476.94 305.684 2476.63 305.946C2476.34 306.208 2476.15 306.755 2476.07 307.587C2475.99 308.404 2475.96 311.708 2475.96 317.498C2475.96 324.85 2475.96 328.686 2475.98 329.006C2476.02 330.159 2476.1 330.866 2476.22 331.129C2476.35 331.392 2476.51 331.581 2476.7 331.697C2477.21 331.989 2478.28 332.259 2479.91 332.507L2480.9 332.704V334.323C2477.37 334.162 2474.68 334.082 2472.83 334.082C2470.92 334.082 2468.09 334.162 2464.36 334.323V332.704C2466.66 332.281 2467.95 332.011 2468.23 331.894C2468.52 331.764 2468.74 331.596 2468.89 331.391C2469.03 331.187 2469.13 330.91 2469.17 330.56C2469.23 330.21 2469.26 328.715 2469.26 326.075C2469.29 320.343 2469.3 315.865 2469.3 312.641C2469.3 312.335 2469.3 311.379 2469.28 309.776C2468.48 311.438 2465.55 317.914 2460.49 329.204L2458.28 334.082H2456.59C2454.94 330.363 2451.23 322.209 2445.46 309.623C2445.43 311.533 2445.41 313.152 2445.41 314.479C2445.41 321.757 2445.48 326.571 2445.61 328.919C2445.68 330.261 2445.75 331.013 2445.83 331.174C2445.93 331.45 2446.15 331.676 2446.48 331.852C2446.82 332.025 2447.81 332.251 2449.46 332.53C2449.66 332.573 2449.96 332.631 2450.36 332.704V334.323C2448.29 334.162 2446.29 334.082 2444.36 334.082C2442.42 334.082 2440.21 334.162 2437.73 334.323V332.704C2439.63 332.369 2440.78 332.129 2441.19 331.983C2441.6 331.837 2441.9 331.596 2442.11 331.261C2442.31 330.925 2442.42 330.298 2442.42 329.379L2442.68 315.464C2442.72 313.028 2442.74 311.219 2442.74 310.038C2442.74 308.215 2442.65 307.018 2442.46 306.449C2442.34 306.099 2442.12 305.837 2441.78 305.662C2441.46 305.487 2440.4 305.282 2438.61 305.048C2438.37 305.02 2438.03 304.969 2437.58 304.896Z" fill="white"/>
<path d="M2498.04 304.896V303.276C2502.08 303.437 2505.24 303.517 2507.53 303.517L2514.88 303.41C2517.07 303.41 2518.8 303.643 2520.07 304.108C2521.34 304.575 2522.36 305.429 2523.15 306.67C2523.94 307.909 2524.33 309.411 2524.33 311.175C2524.33 314.005 2523.37 316.338 2521.45 318.176C2519.52 319.999 2516.89 320.911 2513.55 320.911C2512.51 320.911 2511.22 320.787 2509.67 320.54C2509.7 324.448 2509.72 326.709 2509.72 327.322L2509.7 328.919C2509.7 330.32 2509.81 331.158 2510.05 331.434C2510.43 331.902 2511.77 332.274 2514.09 332.551C2514.36 332.581 2514.75 332.632 2515.28 332.704V334.323C2511.1 334.162 2508.09 334.082 2506.24 334.082C2504.1 334.082 2501.36 334.162 2498.03 334.323V332.704C2500.6 332.252 2502.03 331.895 2502.32 331.632C2502.63 331.369 2502.81 330.881 2502.87 330.166C2502.93 329.452 2502.98 325.499 2503.02 318.308L2503 311.678C2502.99 309.009 2502.94 307.441 2502.85 306.975C2502.76 306.509 2502.57 306.173 2502.28 305.969C2501.9 305.706 2500.81 305.407 2499 305.071C2498.78 305.043 2498.46 304.984 2498.03 304.896H2498.04ZM2509.67 318.067C2510.56 318.155 2511.33 318.199 2511.97 318.199C2513.66 318.199 2514.98 317.681 2515.93 316.645C2516.88 315.609 2517.35 314.005 2517.35 311.831C2517.35 309.906 2516.89 308.447 2515.95 307.457C2515.02 306.465 2513.69 305.969 2511.97 305.969C2511.32 305.969 2510.55 306.041 2509.67 306.186V318.067Z" fill="white"/>
<path d="M2570.5 319.293C2570.5 314.29 2572.03 310.264 2575.09 307.216C2578.17 304.153 2582.29 302.621 2587.45 302.621C2592.33 302.621 2596.15 303.999 2598.92 306.756C2601.71 309.498 2603.1 313.174 2603.1 317.783C2603.1 320.714 2602.55 323.383 2601.46 325.791C2600.6 327.701 2599.48 329.313 2598.11 330.626C2596.75 331.938 2595.36 332.915 2593.93 333.557C2591.8 334.505 2589.24 334.979 2586.23 334.979C2581.24 334.979 2577.37 333.601 2574.61 330.844C2571.87 328.088 2570.5 324.237 2570.5 319.293ZM2578.07 318.112C2578.07 323.42 2579.03 327.322 2580.96 329.816C2582.39 331.683 2584.44 332.617 2587.1 332.617C2588.94 332.617 2590.49 332.143 2591.74 331.195C2593.01 330.247 2593.96 328.73 2594.59 326.644C2595.21 324.543 2595.53 322.107 2595.53 319.336C2595.53 317.221 2595.34 315.193 2594.96 313.253C2594.58 311.313 2594.06 309.797 2593.41 308.704C2592.75 307.609 2591.87 306.727 2590.76 306.056C2589.66 305.385 2588.34 305.05 2586.78 305.05C2585.04 305.05 2583.49 305.538 2582.14 306.515C2580.78 307.478 2579.76 309.002 2579.08 311.087C2578.4 313.159 2578.07 315.501 2578.07 318.112Z" fill="white"/>
<path d="M2621.53 304.896V303.276C2626.46 303.437 2629.37 303.517 2630.25 303.517C2631.2 303.517 2632.57 303.496 2634.37 303.453C2636.16 303.395 2637.48 303.365 2638.33 303.365C2640.5 303.365 2642.19 303.643 2643.41 304.197C2644.62 304.751 2645.58 305.633 2646.31 306.843C2647.06 308.054 2647.43 309.403 2647.43 310.891C2647.43 312.159 2647.17 313.384 2646.64 314.567C2646.12 315.733 2645.42 316.725 2644.54 317.543C2643.97 318.082 2643.06 318.665 2641.81 319.291C2642.8 320.999 2644.25 323.414 2646.16 326.535C2647.56 328.824 2648.47 330.195 2648.9 330.647C2649.33 331.099 2649.8 331.45 2650.3 331.698C2651.06 332.048 2652.44 332.383 2654.45 332.704V334.323C2651.97 334.162 2649.95 334.082 2648.39 334.082C2646.74 334.082 2644.72 334.162 2642.31 334.323C2640.53 330.224 2638.25 325.535 2635.46 320.256C2634.63 320.225 2633.76 320.167 2632.86 320.08L2632.92 329.181C2632.95 330.305 2633.05 331.005 2633.21 331.282C2633.37 331.544 2633.6 331.733 2633.89 331.85C2634.09 331.952 2635.4 332.237 2637.8 332.704V334.323C2634.41 334.162 2631.68 334.082 2629.62 334.082C2627.59 334.082 2624.9 334.162 2621.53 334.323V332.704C2624.01 332.252 2625.4 331.902 2625.7 331.654C2626.03 331.406 2626.23 330.918 2626.32 330.189C2626.36 329.794 2626.39 326.053 2626.4 318.965L2626.38 312.445C2626.38 309.381 2626.32 307.536 2626.21 306.909C2626.12 306.457 2625.92 306.121 2625.59 305.903C2625.29 305.669 2624.26 305.399 2622.51 305.093L2621.53 304.896ZM2632.88 317.608C2633.61 317.637 2634.15 317.651 2634.5 317.651C2636.54 317.651 2638.04 317.17 2639.01 316.208C2639.98 315.23 2640.47 313.749 2640.47 311.765C2640.47 309.899 2640.01 308.478 2639.1 307.501C2638.18 306.509 2636.93 306.013 2635.35 306.013C2634.71 306.013 2633.88 306.064 2632.86 306.166L2632.88 317.608ZM2706.14 318.198V319.796C2704.14 320.16 2702.87 320.473 2702.33 320.736C2702.07 320.867 2701.87 321.115 2701.74 321.48C2701.61 321.845 2701.54 322.968 2701.54 324.849C2701.54 327.854 2701.58 330.509 2701.67 332.813C2700.68 332.988 2699.59 333.2 2698.41 333.448C2695.32 334.119 2693.09 334.542 2691.72 334.717C2690.36 334.892 2688.9 334.979 2687.34 334.979C2683.71 334.979 2680.84 334.527 2678.72 333.623C2676.08 332.471 2674.06 330.691 2672.66 328.285C2671.26 325.878 2670.56 323.011 2670.56 319.685C2670.56 313.779 2672.74 309.228 2677.1 306.033C2680.22 303.759 2684.34 302.621 2689.46 302.621C2692.89 302.621 2696.76 303.117 2701.06 304.109C2701.03 304.968 2701.01 305.661 2701.01 306.186C2701.01 307.894 2701.09 310.316 2701.23 313.451H2699C2698.39 311.03 2697.77 309.353 2697.14 308.42C2696.53 307.471 2695.57 306.719 2694.25 306.165C2692.96 305.596 2691.37 305.312 2689.49 305.312C2687.02 305.312 2684.96 305.815 2683.29 306.821C2681.65 307.828 2680.36 309.388 2679.44 311.503C2678.54 313.604 2678.09 316.025 2678.09 318.767C2678.09 323.144 2679.11 326.455 2681.17 328.701C2683.24 330.946 2685.96 332.069 2689.33 332.069C2691.02 332.069 2692.85 331.69 2694.82 330.933V324.194C2694.82 322.721 2694.75 321.773 2694.61 321.348C2694.5 321.087 2694.3 320.875 2693.99 320.715C2693.7 320.554 2692.77 320.314 2691.19 319.994C2691.02 319.949 2690.75 319.882 2690.38 319.794V318.199C2693.74 318.36 2696.26 318.44 2697.95 318.44C2699.19 318.44 2701.92 318.358 2706.14 318.198ZM2742.87 334.323V332.704C2744.64 332.383 2745.66 332.12 2745.94 331.916C2746.21 331.711 2746.35 331.434 2746.35 331.085C2746.35 330.88 2746.31 330.647 2746.22 330.385C2745.99 329.771 2745.23 327.934 2743.95 324.872C2741.89 324.828 2740.17 324.806 2738.8 324.806C2737.68 324.806 2735.81 324.828 2733.18 324.872C2731.56 328.694 2730.75 330.786 2730.75 331.151C2730.75 331.5 2730.87 331.763 2731.1 331.939C2731.34 332.099 2732.37 332.354 2734.21 332.704V334.323C2732.37 334.162 2730.61 334.082 2728.94 334.082C2727.13 334.082 2725.29 334.162 2723.42 334.323V332.704C2724.74 332.427 2725.64 332.113 2726.14 331.763C2726.47 331.529 2726.78 331.18 2727.06 330.713C2727.62 329.794 2729.32 326.235 2732.15 320.037C2733.95 316.113 2736.51 310.308 2739.83 302.621H2741.6C2742.96 306.048 2745.77 312.444 2750.03 321.809C2752.39 327.016 2753.81 329.976 2754.27 330.69C2754.59 331.187 2754.91 331.538 2755.23 331.741C2755.56 331.946 2756.57 332.267 2758.28 332.704V334.323C2755.69 334.162 2753.29 334.082 2751.08 334.082C2748.89 334.082 2746.15 334.162 2742.87 334.323ZM2738.67 312.049L2734.21 322.356L2738.54 322.378C2739.58 322.378 2741.06 322.37 2743.01 322.356L2738.67 312.049ZM2775.02 304.896V303.276C2777.02 303.437 2778.88 303.517 2780.6 303.517C2782.33 303.517 2784.37 303.437 2786.72 303.276C2788.5 305.669 2793.86 312.284 2802.78 323.122L2802.69 311.218C2802.62 308.317 2802.51 306.705 2802.34 306.384C2802.2 306.049 2801.95 305.793 2801.6 305.617C2801.25 305.428 2800.02 305.188 2797.9 304.896V303.276C2800.25 303.437 2802.3 303.517 2804.05 303.517C2805.74 303.517 2807.9 303.437 2810.53 303.276V304.896C2810.07 304.983 2809.74 305.042 2809.52 305.071C2807.8 305.334 2806.77 305.625 2806.44 305.946C2806.1 306.252 2805.9 306.895 2805.84 307.872C2805.7 309.913 2805.63 314.114 2805.63 320.474C2805.63 324.558 2805.71 329.226 2805.87 334.476C2805.18 334.681 2804.5 334.921 2803.83 335.197L2795.54 324.74L2782.89 309.36L2782.96 319.751L2783.14 329.86C2783.18 330.618 2783.25 331.099 2783.35 331.304C2783.46 331.493 2783.6 331.646 2783.79 331.764C2784.11 331.953 2785.15 332.208 2786.9 332.53C2787.1 332.558 2787.41 332.616 2787.82 332.704V334.323C2785.31 334.162 2783.3 334.082 2781.78 334.082C2780.48 334.082 2778.28 334.162 2775.17 334.323V332.704C2775.62 332.616 2775.97 332.551 2776.2 332.508C2777.88 332.245 2778.87 331.99 2779.2 331.741C2779.4 331.581 2779.55 331.355 2779.63 331.063C2779.72 330.756 2779.82 328.583 2779.92 324.544C2780.08 318.694 2780.16 313.676 2780.16 309.491C2780.16 308.09 2780.08 307.193 2779.92 306.8C2779.77 306.406 2779.5 306.099 2779.11 305.88C2778.71 305.662 2777.72 305.407 2776.11 305.116C2775.86 305.072 2775.5 304.999 2775.02 304.896ZM2844.2 303.276V304.896L2843.39 305.005C2841.45 305.238 2840.29 305.53 2839.89 305.88C2839.51 306.23 2839.32 306.909 2839.32 307.915V308.704L2839.28 316.033L2839.3 324.412L2839.32 328.678C2839.32 329.933 2839.38 330.72 2839.5 331.04C2839.63 331.362 2839.85 331.603 2840.15 331.763C2840.68 332.04 2841.76 332.31 2843.39 332.573L2844.2 332.704V334.323C2841.21 334.162 2838.58 334.082 2836.3 334.082C2834.15 334.082 2831.29 334.162 2827.73 334.323V332.704C2830 332.281 2831.25 332.025 2831.47 331.937C2831.8 331.807 2832.06 331.617 2832.23 331.37C2832.45 331.034 2832.57 330.349 2832.58 329.314C2832.61 326.892 2832.63 322.77 2832.63 316.95L2832.56 308.987V308.331C2832.56 307.165 2832.4 306.414 2832.06 306.077C2831.72 305.742 2830.59 305.414 2828.67 305.093C2828.45 305.05 2828.14 304.984 2827.73 304.896V303.276C2831.48 303.437 2834.28 303.517 2836.15 303.517C2838.15 303.517 2840.83 303.437 2844.2 303.276H2844.2ZM2865.6 311.985H2863.79C2864.08 309.33 2864.3 306.427 2864.44 303.276C2868.79 303.437 2872.69 303.517 2876.15 303.517C2879.5 303.517 2883.59 303.437 2888.42 303.276V305.116C2886.96 307.114 2884.43 310.724 2880.83 315.946C2875.13 324.216 2871.65 329.401 2870.39 331.5H2880.04C2881.81 331.5 2882.96 331.398 2883.5 331.193C2884.06 330.976 2884.58 330.516 2885.08 329.816C2885.81 328.78 2886.46 327.322 2887.04 325.441H2889.01L2888.01 330.364C2887.86 331.137 2887.66 332.456 2887.39 334.323L2874.57 334.082C2872.36 334.082 2868.15 334.162 2861.95 334.323V332.574L2874.27 314.654L2879.85 306.231H2870.94C2869.75 306.231 2868.92 306.311 2868.47 306.472C2868.02 306.617 2867.68 306.865 2867.46 307.216C2866.94 307.989 2866.48 309.068 2866.09 310.452C2865.98 310.803 2865.82 311.314 2865.6 311.985ZM2925.97 334.323V332.704C2927.74 332.383 2928.76 332.12 2929.03 331.916C2929.31 331.711 2929.45 331.434 2929.45 331.085C2929.45 330.88 2929.4 330.647 2929.32 330.385C2929.08 329.771 2928.33 327.934 2927.04 324.872C2924.99 324.828 2923.27 324.806 2921.9 324.806C2920.78 324.806 2918.9 324.828 2916.28 324.872C2914.66 328.694 2913.85 330.786 2913.85 331.151C2913.85 331.5 2913.97 331.763 2914.2 331.939C2914.43 332.099 2915.47 332.354 2917.31 332.704V334.323C2915.47 334.162 2913.71 334.082 2912.03 334.082C2910.23 334.082 2908.39 334.162 2906.52 334.323V332.704C2907.83 332.427 2908.74 332.113 2909.23 331.763C2909.57 331.529 2909.88 331.18 2910.15 330.713C2910.72 329.794 2912.42 326.235 2915.25 320.037C2917.04 316.113 2919.6 310.308 2922.93 302.621H2924.7C2926.06 306.048 2928.87 312.444 2933.12 321.809C2935.49 327.016 2936.9 329.976 2937.37 330.69C2937.69 331.187 2938.01 331.538 2938.33 331.741C2938.65 331.946 2939.67 332.267 2941.37 332.704V334.323C2938.79 334.162 2936.39 334.082 2934.18 334.082C2931.99 334.082 2929.25 334.162 2925.97 334.323ZM2921.77 312.049L2917.31 322.356L2921.64 322.378C2922.67 322.378 2924.16 322.37 2926.1 322.356L2921.77 312.049ZM2984.89 312.488H2982.86C2981.85 309.41 2981.23 307.667 2981 307.259C2980.78 306.85 2980.47 306.565 2980.06 306.406C2979.65 306.231 2978.35 306.143 2976.16 306.143H2974.04V326.578C2974.04 329.116 2974.13 330.647 2974.31 331.172C2974.39 331.449 2974.6 331.676 2974.94 331.852C2975.29 332.011 2976.62 332.295 2978.92 332.704V334.323C2974.47 334.162 2971.61 334.082 2970.35 334.082C2968.62 334.082 2965.99 334.162 2962.45 334.323V332.704C2964.78 332.295 2966.17 331.974 2966.6 331.741C2966.9 331.581 2967.09 331.318 2967.2 330.954C2967.31 330.575 2967.37 329.043 2967.37 326.36V306.142H2963.69C2962.45 306.142 2961.63 306.244 2961.22 306.449C2960.83 306.653 2960.5 307.025 2960.24 307.565C2959.84 308.383 2959.29 310.024 2958.57 312.49H2956.58C2956.83 310.344 2956.98 308.863 2957.04 308.047C2957.1 307.23 2957.17 305.64 2957.24 303.276C2963.01 303.437 2968.66 303.503 2974.17 303.474C2978.84 303.43 2982.19 303.364 2984.24 303.276C2984.25 306.092 2984.47 309.162 2984.89 312.488ZM3019.25 303.276V304.896L3018.44 305.005C3016.5 305.238 3015.33 305.53 3014.94 305.88C3014.56 306.23 3014.37 306.909 3014.37 307.915V308.704L3014.33 316.033L3014.35 324.412L3014.37 328.678C3014.37 329.933 3014.43 330.72 3014.54 331.04C3014.68 331.362 3014.89 331.603 3015.2 331.763C3015.73 332.04 3016.8 332.31 3018.44 332.573L3019.25 332.704V334.323C3016.26 334.162 3013.62 334.082 3011.35 334.082C3009.19 334.082 3006.33 334.162 3002.77 334.323V332.704C3005.05 332.281 3006.3 332.025 3006.51 331.937C3006.85 331.807 3007.11 331.617 3007.28 331.37C3007.5 331.034 3007.62 330.349 3007.63 329.314C3007.66 326.892 3007.67 322.77 3007.67 316.95L3007.61 308.987V308.331C3007.61 307.165 3007.44 306.414 3007.1 306.077C3006.77 305.742 3005.64 305.414 3003.71 305.093C3003.5 305.05 3003.18 304.984 3002.77 304.896V303.276C3006.52 303.437 3009.33 303.517 3011.2 303.517C3013.19 303.517 3015.88 303.437 3019.25 303.276ZM3038 319.293C3038 314.29 3039.53 310.264 3042.6 307.216C3045.68 304.153 3049.8 302.621 3054.96 302.621C3059.83 302.621 3063.65 303.999 3066.42 306.756C3069.21 309.498 3070.6 313.174 3070.6 317.783C3070.6 320.714 3070.05 323.383 3068.96 325.791C3068.1 327.701 3066.98 329.313 3065.61 330.626C3064.26 331.938 3062.86 332.915 3061.43 333.557C3059.31 334.505 3056.74 334.979 3053.73 334.979C3048.75 334.979 3044.87 333.601 3042.12 330.844C3039.37 328.088 3038 324.237 3038 319.293ZM3045.57 318.112C3045.57 323.42 3046.54 327.322 3048.46 329.816C3049.89 331.683 3051.94 332.617 3054.61 332.617C3056.45 332.617 3057.99 332.143 3059.25 331.195C3060.51 330.247 3061.46 328.73 3062.09 326.644C3062.72 324.543 3063.03 322.107 3063.03 319.336C3063.03 317.221 3062.84 315.193 3062.46 313.253C3062.08 311.313 3061.57 309.797 3060.91 308.704C3060.25 307.609 3059.37 306.727 3058.26 306.056C3057.17 305.385 3055.84 305.05 3054.28 305.05C3052.54 305.05 3051 305.538 3049.64 306.515C3048.29 307.478 3047.26 309.002 3046.58 311.087C3045.91 313.159 3045.57 315.501 3045.57 318.112ZM3089.25 304.896V303.276C3091.25 303.437 3093.1 303.517 3094.83 303.517C3096.56 303.517 3098.6 303.437 3100.95 303.276C3102.73 305.669 3108.08 312.284 3117.01 323.122L3116.92 311.218C3116.85 308.317 3116.73 306.705 3116.57 306.384C3116.43 306.049 3116.18 305.793 3115.83 305.617C3115.48 305.428 3114.25 305.188 3112.13 304.896V303.276C3114.48 303.437 3116.53 303.517 3118.28 303.517C3119.97 303.517 3122.13 303.437 3124.76 303.276V304.896C3124.3 304.983 3123.97 305.042 3123.75 305.071C3122.03 305.334 3121 305.625 3120.66 305.946C3120.33 306.252 3120.13 306.895 3120.07 307.872C3119.93 309.913 3119.85 314.114 3119.85 320.474C3119.85 324.558 3119.93 329.226 3120.1 334.476C3119.41 334.681 3118.73 334.921 3118.06 335.197L3109.77 324.74L3097.12 309.36L3097.19 319.751L3097.36 329.86C3097.41 330.618 3097.48 331.099 3097.58 331.304C3097.68 331.493 3097.83 331.646 3098.02 331.764C3098.34 331.953 3099.38 332.208 3101.13 332.53C3101.33 332.558 3101.64 332.616 3102.05 332.704V334.323C3099.54 334.162 3097.52 334.082 3096.01 334.082C3094.71 334.082 3092.51 334.162 3089.4 334.323V332.704C3089.85 332.616 3090.19 332.551 3090.43 332.508C3092.1 332.245 3093.1 331.99 3093.43 331.741C3093.63 331.581 3093.78 331.355 3093.86 331.063C3093.95 330.756 3094.05 328.583 3094.15 324.544C3094.31 318.694 3094.39 313.676 3094.39 309.491C3094.39 308.09 3094.31 307.193 3094.15 306.8C3094 306.406 3093.73 306.099 3093.34 305.88C3092.94 305.662 3091.95 305.407 3090.34 305.116C3090.09 305.072 3089.73 304.999 3089.25 304.896Z" fill="white"/>
<path d="M3609.94 307.119H3613.88V332.766H3647.82V307.128H3651.76V362.526H3647.82V336.564H3613.88V362.526H3609.94V307.119Z" fill="white"/>
<path d="M3736.04 334.98V334.823C3736.04 321.124 3726.49 309.889 3713.38 309.889C3700.27 309.889 3690.87 320.966 3690.87 334.665V334.823C3690.87 348.512 3700.43 359.748 3713.53 359.748C3726.65 359.757 3736.04 348.679 3736.04 334.98ZM3686.79 334.98V334.823C3686.79 319.707 3697.47 306.174 3713.53 306.174C3729.59 306.174 3740.13 319.549 3740.13 334.665V334.823C3740.13 349.939 3729.44 363.471 3713.37 363.471C3697.32 363.471 3686.79 350.096 3686.79 334.98Z" fill="white"/>
<path d="M3785.69 310.917H3767.2V307.119H3808.13V310.917H3789.64V362.526H3785.7V310.917" fill="white"/>
<path d="M3841.7 307.119H3879.44V310.917H3845.64V332.683H3876.03V336.481H3845.64V358.719H3879.82V362.517H3841.7V307.119Z" fill="white"/>
<path d="M3914.08 307.119H3918.02V358.719H3949.17V362.517H3914.08V307.119Z" fill="white"/>
<path d="M4024.59 334.98V334.823C4024.59 319.864 4034.97 306.174 4050.81 306.174C4059.45 306.174 4064.9 308.86 4070.21 313.455L4067.63 316.539C4063.47 312.741 4058.62 309.889 4050.58 309.889C4037.69 309.889 4028.67 321.29 4028.67 334.665V334.823C4028.67 349.142 4037.24 359.831 4051.4 359.831C4058.15 359.831 4064.44 356.904 4068.3 353.505V337.592H4050.57V333.795H4072.1V355.163C4067.32 359.599 4059.89 363.471 4051.25 363.471C4034.51 363.471 4024.59 350.578 4024.59 334.98Z" fill="white"/>
<path d="M4129.78 335.851C4138.65 335.851 4145.24 331.173 4145.24 323.189V323.032C4145.24 315.594 4139.63 310.917 4130.01 310.917H4111.9V335.851H4129.78ZM4107.95 307.119H4130.24C4136.76 307.119 4141.98 309.249 4145.17 312.575C4147.67 315.187 4149.17 318.91 4149.17 322.865V323.022C4149.17 332.285 4142.59 337.583 4133.65 338.852L4151.15 362.517H4146.15L4129.26 339.565H4111.9V362.517H4107.95V307.119Z" fill="white"/>
<path d="M4231.26 334.98V334.823C4231.26 321.124 4221.71 309.889 4208.6 309.889C4195.5 309.889 4186.1 320.966 4186.1 334.665V334.823C4186.1 348.512 4195.65 359.748 4208.76 359.748C4221.86 359.757 4231.26 348.679 4231.26 334.98ZM4182 334.98V334.823C4182 319.707 4192.68 306.174 4208.76 306.174C4224.83 306.174 4235.35 319.549 4235.35 334.665V334.823C4235.35 349.939 4224.67 363.471 4208.6 363.471C4192.53 363.471 4182 350.096 4182 334.98Z" fill="white"/>
<path d="M4269.54 339.491V307.119H4273.49V339.093C4273.49 352.152 4280.23 359.664 4291.45 359.664C4302.21 359.664 4309.1 352.856 4309.1 339.482V307.11H4313.04V339C4313.04 354.913 4304.18 363.378 4291.3 363.378C4278.56 363.397 4269.54 355.005 4269.54 339.491Z" fill="white"/>
<path d="M4368.06 338.074C4377.92 338.074 4384.59 332.692 4384.59 324.449V324.291C4384.59 315.511 4378.07 310.917 4368.52 310.917H4353.51V338.074H4368.06ZM4349.57 307.119H4368.83C4380.5 307.119 4388.53 313.371 4388.53 324.051V324.208C4388.53 335.841 4378.91 341.862 4367.84 341.862H4353.52V362.517H4349.57V307.119Z" fill="white"/>
<path d="M4464.24 99.4767C4464.24 106.988 4469.95 112.907 4477.1 112.907C4484.29 112.907 4490 106.942 4490 99.4304C4490 92.0205 4484.25 86 4477.1 86C4469.95 86 4464.24 91.965 4464.24 99.4767ZM4465.52 99.4211C4465.52 92.7337 4470.64 87.3431 4477.09 87.3431C4483.54 87.3431 4488.71 92.7337 4488.71 99.4211C4488.71 106.164 4483.54 111.545 4477.09 111.545C4470.64 111.555 4465.52 106.164 4465.52 99.4211ZM4471.88 106.692H4473.73V100.625H4478.05C4479.16 100.625 4479.76 100.82 4480.09 101.301C4480.36 101.635 4480.55 102.116 4480.55 102.598C4480.59 102.932 4480.59 103.608 4480.64 104.719C4480.68 105.729 4480.73 106.257 4480.91 106.692H4483.13V106.359C4482.76 106.118 4482.62 105.97 4482.58 105.636C4482.44 105.201 4482.44 104.914 4482.35 102.607C4482.3 100.829 4481.93 100.199 4480.73 99.7175C4482.12 98.8932 4482.62 97.9855 4482.62 96.3923C4482.62 93.7433 4481.15 92.5392 4477.88 92.5392H4471.88V106.692ZM4473.73 98.9951V94.1787H4478.01C4479.86 94.1787 4480.78 94.9474 4480.78 96.5405C4480.78 98.2263 4479.9 98.9951 4478.01 98.9951H4473.73Z" fill="white"/>
<path d="M4350.84 152.846V102.561C4371.81 102.561 4377.58 103.006 4384.01 104.803C4393.85 107.479 4400.48 117.094 4400.48 129.162C4400.48 145.927 4388.08 156.875 4369.46 156.875C4363.25 156.866 4358.54 155.977 4350.84 152.846ZM4322.17 235.086H4358.33C4352.77 231.511 4350.85 227.26 4350.85 218.099V168.49C4359.19 171.399 4366.47 172.732 4374.81 172.732C4403.49 172.732 4426.69 154.634 4426.69 128.486C4426.69 111.944 4415.25 97.4205 4401.76 90.9369C4395.57 88.0285 4387.86 86.4632 4377.38 86.2409C4375.66 86.0186 4372.24 86.0186 4367.11 86.0186H4322.17C4327.95 89.8161 4329.66 93.836 4329.66 103.228V218.099C4329.65 227.26 4327.95 231.511 4322.17 235.086ZM4087.64 235.086H4117.81C4113.32 230.39 4112.47 228.38 4112.47 223.462C4112.47 222.119 4112.47 220.331 4112.68 219.211L4124.45 119.983L4174.1 237.754L4223.1 119.983L4235.08 215.191C4235.29 216.978 4235.29 219.664 4235.29 221.897C4235.29 228.38 4234.01 231.733 4229.94 235.086H4264.4C4261.19 231.733 4259.9 230.168 4258.83 227.936C4257.33 225.25 4256.9 223.471 4256.05 215.867L4241.93 105.46C4241.51 102.107 4241.51 100.773 4241.51 98.7542C4241.51 92.7245 4242.57 90.2607 4247.49 86.0186H4219.03L4176.24 189.043L4132.59 86.0186H4103.7C4108.41 90.27 4109.7 92.9468 4109.7 98.0874C4109.7 100.097 4109.49 104.349 4109.06 106.803L4095.98 217.877C4094.92 227.491 4092.99 231.511 4087.64 235.086ZM3904.9 86.0278C3910.68 89.8254 3912.4 93.8452 3912.4 103.237V174.529C3912.4 198.435 3915.61 209.393 3925.45 219.896C3936.79 231.742 3951.99 237.772 3971.03 237.772C3996.7 237.772 4016.18 225.926 4024.1 205.595C4027.1 197.768 4028.16 190.173 4028.16 176.095V103.246C4028.16 93.8545 4029.87 89.8346 4035.65 86.0371H4003.77C4009.54 89.8346 4011.26 93.8545 4011.26 103.246V175.205C4011.26 194.869 4009.11 202.918 4002.27 210.291C3995 217.886 3984.93 221.684 3972.95 221.684C3958.41 221.684 3945.99 215.876 3939.58 205.817C3934.87 198.444 3933.58 191.516 3933.58 174.751V103.237C3933.58 93.8452 3935.52 89.8254 3941.08 86.0278H3904.9ZM3765.65 145.473V102.783C3771.85 102.561 3774.42 102.561 3777.41 102.561C3791.54 102.561 3798.6 103.904 3803.74 107.924C3808.01 111.055 3810.58 116.64 3810.58 123.123C3810.58 134.081 3803.52 142.574 3792.82 144.584C3788.54 145.473 3784.05 145.927 3776.99 145.927C3773.57 145.918 3771.21 145.918 3765.65 145.473ZM3736.97 235.086H3773.13C3767.57 231.511 3765.64 227.26 3765.64 218.099V161.117C3774.2 161.34 3777.41 162.238 3782.12 164.915C3786.82 167.823 3791.32 172.732 3796.67 180.559L3833.9 235.095H3868.99C3861.93 231.965 3860.43 231.076 3857.86 228.843C3855.08 226.824 3853.15 224.592 3849.94 219.905L3847.38 216.33L3819.35 176.326C3817.85 174.094 3816.99 172.973 3816.77 172.529C3815.7 170.972 3814.41 169.398 3813.14 167.61C3811.21 165.378 3809.93 163.813 3808.64 162.701C3806.93 160.914 3805.86 160.237 3803.08 158.228C3823.63 153.763 3834.33 141.694 3834.33 122.92C3834.33 106.831 3825.12 93.6415 3811 89.177C3803.73 86.9448 3798.59 86.5002 3783.83 86.2687C3778.27 86.2687 3774.2 86.0464 3771.63 86.0464H3736.97C3742.75 89.8439 3744.47 93.8638 3744.47 103.256V218.099C3744.47 227.26 3742.75 231.511 3736.97 235.086ZM3591.35 102.783H3614.67V218.099C3614.67 227.26 3612.96 231.511 3607.18 235.086H3643.35C3637.79 231.511 3635.86 227.26 3635.86 218.099V102.783H3659.19C3666.46 102.783 3664.57 102.82 3671.94 102.82C3671.94 102.82 3678.19 102.58 3681.54 104.682L3679.09 86.0186" fill="white"/>
<path d="M3614.55 102.82L3591.35 102.783C3584.08 102.783 3585.97 102.82 3578.6 102.82C3578.37 102.82 3572.34 102.589 3569 104.682L3571.45 86.0185H3679.09" fill="white"/>
<path d="M3389.03 696.022L3369.67 658.14L3360.6 667.556L3354.52 696.022H3335.81L3355.17 603.465H3373.88L3365.59 643.17L3403.87 603.465H3427.96L3383.99 646.858L3410.99 695.979L3389.03 696.022ZM3281.95 696.022L3257.21 633.84L3245.88 696.022H3229.87L3246.53 603.856H3263.11L3287.16 663.825L3298.18 603.856H3314.29L3297.62 696.022H3281.95ZM3171.01 695.762L3189.5 603.422H3207.34L3188.85 695.762H3171.01ZM3084.21 695.154L3103.83 604.333H3122.79L3106.91 678.101H3144.45L3140.8 695.111L3084.21 695.154ZM2813.11 697.888C2803.79 698.462 2794.62 695.344 2787.59 689.209C2784.51 686.135 2782.11 682.45 2780.55 678.391C2778.99 674.332 2778.3 669.991 2778.52 665.647C2778.5 663.563 2778.7 661.483 2779.13 659.442L2789.59 603.986H2806.95L2796.57 658.921C2796.18 660.407 2796.02 661.943 2796.1 663.477C2796.02 665.733 2796.39 667.982 2797.2 670.091C2798 672.2 2799.22 674.127 2800.78 675.758C2802.42 677.381 2804.38 678.648 2806.53 679.477C2808.68 680.306 2810.98 680.68 2813.28 680.574C2824.25 680.574 2831.08 673.342 2833.77 658.878L2844.27 603.943H2861.64L2851.05 659.268C2848.35 672.836 2843.93 682.657 2837.76 688.732C2834.52 691.814 2830.69 694.209 2826.5 695.775C2822.31 697.341 2817.84 698.045 2813.37 697.845L2813.11 697.888ZM3038.33 696.63L3036.33 680.835H3002.44L2994.54 696.63H2974.57L3022.31 603.509H3043.36L3056.39 696.63H3038.33ZM3030.21 623.079L3010.46 663.13H3034.94L3030.21 623.079ZM2931.38 695.545L2921.53 662.74H2907.82L2901.31 695.545H2883.55L2901.91 603.205H2937.5C2940.91 603.119 2944.3 603.733 2947.45 605.009C2950.61 606.286 2953.47 608.197 2955.86 610.625C2958.29 613.064 2960.2 615.973 2961.47 619.173C2962.74 622.374 2963.34 625.799 2963.24 629.241C2963.43 636.859 2961.04 644.318 2956.47 650.416C2952.4 656.07 2946.33 659.975 2939.5 661.351L2951 695.545H2931.38ZM2929.91 645.426C2931.9 645.548 2933.89 645.257 2935.75 644.57C2937.62 643.882 2939.33 642.815 2940.76 641.434C2942.05 640.063 2943.06 638.447 2943.73 636.681C2944.39 634.915 2944.69 633.035 2944.62 631.15C2944.67 629.714 2944.41 628.286 2943.85 626.96C2943.3 625.635 2942.46 624.445 2941.41 623.469C2939.47 621.547 2936.85 620.47 2934.12 620.475H2916.28L2911.29 645.426H2929.91ZM2686.03 695.979L2704.08 602.771H2761.98L2758.55 620.128H2718.19L2714.37 639.828H2753.87L2750.39 657.185H2710.9L2706.86 678.274H2747.22L2743.93 695.632L2686.03 695.979ZM2630.9 695.675L2606.6 633.58L2595.44 695.675H2579.65L2596.18 603.682H2612.46L2636.07 663.564L2646.88 603.682H2662.68L2646.31 695.718L2630.9 695.675Z" fill="white"/>
<path d="M2071 806.804H2456.64L2453.69 785.845H2123.08L2358.16 559.335C2390.4 527.094 2447.31 547.966 2456.68 599.343C2473.57 705.525 2487.06 818.52 2501.3 927.219C2508.72 968.399 2552.86 977.988 2578.99 951.866L2743.14 785.932H2528.95L2531.81 806.543H2694.14L2566.1 935.507C2548.31 953.298 2527.04 952.864 2519.01 922.706L2474.35 590.404C2464.1 530.478 2391.88 500.277 2344.14 543.887L2071 806.804Z" fill="white"/>
<g clip-path="url(#clip0_46_357)">
<path d="M3613.07 596.185V538.475H3598V522H3649.14V538.475H3633.31V596.185H3613.07Z" fill="white"/>
<path d="M3656.4 596.185V522H3676.68V549.742H3703.04V522H3723.32V596.185H3703.04V566.265H3676.68V596.185H3656.4Z" fill="white"/>
<path d="M3737.73 596.185V522H3780.34V538.57H3758.26V549.648H3779.44V567.732H3758.26V578.195H3780.34V596.185H3737.73Z" fill="white"/>
<path d="M4053.46 772.06V623.975H4092.75V772.06H4053.46Z" fill="white"/>
<path d="M4047.63 877.87L4060.14 802.691L4080.19 802.88L4094.51 840.185L4108.82 802.88L4128.82 802.691L4141.34 877.87H4121.05L4114.56 838.765L4099.53 877.87H4089.43L4074.41 838.765L4067.92 877.87H4047.63Z" fill="white"/>
<path d="M4206.42 877.87L4235.19 802.691H4256.94L4285.71 877.87H4263.39L4259.36 865.797H4232.72L4228.69 877.87H4206.37H4206.42ZM4246.09 828.018L4238.6 849.37H4253.58L4246.09 828.018Z" fill="white"/>
<path d="M4398.71 877.728V842.268L4370.8 802.691H4395.35L4408.9 823.095L4422.41 802.691H4446.97L4418.81 842.6V877.728H4398.71Z" fill="white"/>
<path d="M3989.75 772.06L3954.44 717.191V772.06H3914.48V623.975H3980.75C4007.39 623.975 4024.83 644.947 4024.83 669.376C4024.83 690.111 4014.02 706.728 3993.26 711.463L4038.48 770.356V772.013H3989.71L3989.75 772.06ZM3954.44 654.51V688.691H3965.39C3976.77 688.691 3983.88 681.022 3983.88 671.601C3983.88 662.18 3974.78 654.51 3965.39 654.51H3954.44Z" fill="white"/>
<path d="M4151.48 877.728V802.738H4180.3C4202.06 802.738 4209.54 814.621 4209.54 828.397C4209.54 842.174 4201.96 853.631 4184.09 853.631H4172.57V877.728H4151.53H4151.48ZM4172.53 819.97V836.919H4179.4C4191.2 836.919 4190.87 819.97 4179.87 819.97H4172.48H4172.53Z" fill="white"/>
<path d="M4374.07 719.132V687.65H4450.57C4455.78 734.707 4428.05 776.179 4373.97 776.179C4328.61 776.179 4295.48 744.365 4295.48 697.686C4295.48 651.007 4327.85 618.956 4374.4 618.956C4407.2 618.956 4431.47 634.248 4443.7 661.185L4405.82 677.376C4400.04 661.611 4388.71 653.942 4374.11 653.942C4352.88 653.942 4337.24 671.506 4337.66 697.828C4337.66 724.387 4350.51 740.767 4373.92 740.767C4389.8 740.767 4402.36 735.276 4404.88 719.132H4374.07Z" fill="white"/>
<path d="M4122.14 772.06V623.975H4162.1L4231.02 711.51V623.975H4270.59V772.06H4231.02L4162.1 684.288V772.06H4122.14Z" fill="white"/>
<path d="M4291.92 877.728V802.691H4312.16L4346.53 846.908V802.691H4366.58V877.728H4346.62L4312.16 833.794V877.728H4291.92Z" fill="white"/>
<path fill-rule="evenodd" clip-rule="evenodd" d="M3809.97 619.335C3858.84 619.335 3892.16 654.463 3892.16 697.781C3892.16 741.099 3857.61 776.226 3809.97 776.226C3762.33 776.226 3727.78 741.099 3727.78 697.781C3727.78 654.463 3761.1 619.335 3809.97 619.335Z" fill="white"/>
<path fill-rule="evenodd" clip-rule="evenodd" d="M3999.14 821.059C4011.08 821.059 4019.24 829.77 4019.24 840.564C4019.24 851.358 4010.75 860.069 3999.14 860.069C3987.53 860.069 3979.04 851.358 3979.04 840.564C3979.04 829.77 3987.19 821.059 3999.14 821.059ZM3999.14 801.128C4023.74 801.128 4040.47 818.787 4040.47 840.564C4040.47 862.341 4023.08 880 3999.14 880C3975.2 880 3957.81 862.341 3957.81 840.564C3957.81 818.787 3974.54 801.128 3999.14 801.128Z" fill="white"/>
<path fill-rule="evenodd" clip-rule="evenodd" d="M3641.09 710.516H3649.95C3664.69 710.468 3674.64 715.392 3674.64 725.476C3674.64 735.56 3667.06 740.057 3656.3 740.246L3641.09 740.483V710.563V710.516ZM3641.09 653.753H3647.72C3656.16 653.753 3663.98 657.824 3663.98 667.624C3663.98 677.424 3656.16 681.495 3647.72 681.495H3641.09V653.753ZM3601.13 772.06V623.975H3662.94C3689.72 623.975 3700.95 641.538 3700.95 661.801C3700.95 675.293 3695.59 686.845 3685.74 692.052C3705.26 696.55 3715.03 709.522 3715.03 727.085C3715.03 750.236 3702.18 772.108 3661.18 772.108H3601.13V772.06Z" fill="white"/>
<path fill-rule="evenodd" clip-rule="evenodd" d="M3930.98 801.128C3937.71 801.128 3943.78 802.596 3949.09 805.2V828.681H3947.85C3944.44 824.042 3938.9 821.059 3932.12 821.059C3920.5 821.059 3912.64 829.77 3912.64 840.564C3912.64 851.358 3920.84 860.069 3932.12 860.069C3938.71 860.069 3944.25 857.086 3947.71 852.447H3949.04V875.787C3943.73 878.485 3937.57 880 3930.93 880C3908.23 880 3891.69 862.341 3891.69 840.564C3891.69 818.787 3907.56 801.128 3930.93 801.128H3930.98Z" fill="white"/>
</g>
<g clip-path="url(#clip1_46_357)">
<path d="M537.925 1361.8H363.707L357.47 1366.76V1521.39H405.394V1463.02L409.744 1458.67H537.884C570.216 1458.67 585.151 1449.99 585.151 1427.63V1392.24C585.151 1370.48 570.216 1361.8 537.884 1361.8M537.925 1418.9C537.925 1429.47 531.073 1431.31 515.522 1431.31H410.4L405.435 1426.97V1394.04L409.785 1389.7H515.563C530.498 1389.7 537.966 1391.54 537.966 1402.11V1418.86L537.925 1418.9Z" fill="white"/>
<path d="M673.533 1390.97L715.22 1451.83L712.717 1457.45H620.644L597.01 1486.61H733.889L743.819 1492.22L764.991 1521.39H820.342L699.054 1359.92" fill="white"/>
<path d="M1222.9 1490.34V1446.88L1227.86 1442.54H1320.55V1415.21H1173.74V1521.39H1390.22V1494.06H1228.48" fill="white"/>
<path d="M1392.11 1361.8H1173.74V1391.62H1392.11V1361.8Z" fill="white"/>
<path d="M930.469 1390.35H1106.53C1104.03 1367.99 1089.75 1361.8 1054.92 1361.8H928.623C888.823 1361.8 876.349 1369.26 876.349 1399.69V1484.15C876.349 1513.97 888.781 1522.04 928.623 1522.04H1054.92C1090.37 1522.04 1104.07 1515.2 1105.3 1492.22H930.469L925.504 1487.26V1394.12" fill="white"/>
<path d="M239.301 1423.9H111.735L108.002 1419.56V1392.24L111.735 1389.12H284.066L286.569 1383.55C280.988 1368.64 265.397 1361.19 237.414 1361.19H117.357C77.5566 1361.19 65.0831 1368.64 65.0831 1399.08V1417.1C65.0831 1446.92 77.5155 1454.99 117.357 1454.99H244.881L248.615 1458.72V1487.26L245.497 1491.61H61.3493C61.3493 1491.61 57 1494.11 57 1494.72C60.1184 1515.86 74.4382 1521.43 108.617 1521.43H239.26C279.06 1521.43 292.149 1513.97 292.149 1483.54V1461.79C292.149 1431.97 279.101 1423.9 239.26 1423.9" fill="white"/>
<path d="M1529.6 1361.15H1457.43L1453.7 1368.6L1533.34 1426.97C1548.27 1418.29 1565.06 1409.56 1582.49 1400.88" fill="white"/>
<path d="M1594.31 1470.47L1664.6 1521.39H1736.77L1739.89 1514.55L1635.38 1438.15C1621.68 1448.72 1607.4 1459.29 1594.31 1470.43" fill="white"/>
<path d="M1519.02 1521.39H1453.7L1448.12 1512.7C1492.31 1469.86 1690.12 1287.25 2120.04 1268C2120.04 1268 1759.83 1280.41 1519.06 1521.39" fill="white"/>
</g>
<g clip-path="url(#clip2_46_357)">
<path d="M4452 1471.07H3615V1505H4452V1471.07Z" fill="white"/>
<path d="M4452 1403.26H3615V1437.2H4452V1403.26Z" fill="white"/>
<path d="M4452 1335.4H3615V1369.33H4452V1335.4Z" fill="white"/>
<path d="M4452 1267.53H3949.8V1301.47H4452V1267.53Z" fill="white"/>
<path d="M4452 1199.67H3949.8V1233.6H4452V1199.67Z" fill="white"/>
<path d="M4452 1131.86H3949.8V1165.8H4452V1131.86Z" fill="white"/>
<path d="M4452 1064H3949.8V1097.93H4452V1064Z" fill="white"/>
<path d="M3949.8 1199.67V1064H3615V1267.53V1301.47H3949.8V1267.53V1199.67ZM3929.92 1241.44L3921.96 1235.62L3914.01 1241.44L3917.07 1232.07L3909.05 1226.25H3918.9L3921.96 1216.88L3925.02 1226.31H3934.87L3926.86 1232.07L3929.92 1241.44ZM3667.8 1250.08L3670.86 1240.65L3673.92 1250.08H3683.77L3675.76 1255.83L3678.82 1265.21L3670.86 1259.39L3662.91 1265.21L3665.97 1255.83L3657.95 1250.02H3667.8V1250.08ZM3693.81 1232.07L3685.79 1226.25H3695.64L3698.7 1216.88L3701.76 1226.31H3711.61L3703.59 1232.07L3706.65 1241.44L3698.7 1235.62L3690.75 1241.44L3693.81 1232.07ZM3685.79 1131.19H3695.64L3698.7 1121.82L3701.76 1131.25H3711.61L3703.59 1137.01L3706.65 1146.38L3698.7 1140.56L3690.75 1146.38L3693.81 1137.01L3685.79 1131.19ZM3667.8 1107.55L3670.86 1098.12L3673.92 1107.55H3683.77L3675.76 1113.31L3678.82 1122.68L3670.86 1116.86L3662.91 1122.68L3665.97 1113.31L3657.95 1107.49H3667.8V1107.55ZM3754.5 1121.82L3757.56 1131.25H3767.41L3759.39 1137.01L3762.45 1146.38L3754.5 1140.56L3746.55 1146.38L3749.61 1137.01L3741.59 1131.19H3751.44L3754.5 1121.82ZM3810.3 1121.82L3813.36 1131.25H3823.21L3815.19 1137.01L3818.25 1146.38L3810.3 1140.56L3802.35 1146.38L3805.41 1137.01L3797.39 1131.19H3807.24L3810.3 1121.82ZM3866.1 1121.82L3869.16 1131.25H3879.01L3870.99 1137.01L3874.05 1146.38L3866.1 1140.56L3858.15 1146.38L3861.21 1137.01L3853.19 1131.19H3863.04L3866.1 1121.82ZM3902.08 1122.68L3894.12 1116.86L3886.17 1122.68L3889.23 1113.31L3881.21 1107.49H3891.06L3894.12 1098.12L3897.18 1107.55H3907.03L3899.02 1113.31L3902.08 1122.68ZM3841.32 1202.61H3851.17L3843.16 1208.37L3846.22 1217.74L3838.26 1211.92L3830.31 1217.74L3833.37 1208.37L3825.35 1202.55H3835.2L3838.26 1193.18L3841.32 1202.61ZM3846.28 1265.21L3838.32 1259.39L3830.37 1265.21L3833.43 1255.83L3825.41 1250.02H3835.26L3838.32 1240.65L3841.38 1250.08H3851.23L3843.22 1255.83L3846.28 1265.21ZM3785.52 1202.61H3795.37L3787.36 1208.37L3790.42 1217.74L3782.46 1211.92L3774.51 1217.74L3777.57 1208.37L3769.55 1202.55H3779.4L3782.46 1193.18L3785.52 1202.61ZM3790.48 1265.21L3782.52 1259.39L3774.57 1265.21L3777.63 1255.83L3769.61 1250.02H3779.46L3782.52 1240.65L3785.58 1250.08H3795.43L3787.42 1255.83L3790.48 1265.21ZM3769.61 1155.02H3779.46L3782.52 1145.65L3785.58 1155.08H3795.43L3787.42 1160.84L3790.48 1170.21L3782.52 1164.39L3774.57 1170.21L3777.63 1160.84L3769.61 1155.02ZM3790.48 1122.68L3782.52 1116.86L3774.57 1122.68L3777.63 1113.31L3769.61 1107.49H3779.46L3782.52 1098.12L3785.58 1107.55H3795.43L3787.42 1113.31L3790.48 1122.68ZM3818.25 1193.91L3810.3 1188.09L3802.35 1193.91L3805.41 1184.54L3797.39 1178.72H3807.24L3810.3 1169.35L3813.36 1178.78H3823.21L3815.19 1184.54L3818.25 1193.91ZM3751.44 1178.72L3754.5 1169.29L3757.56 1178.72H3767.41L3759.39 1184.48L3762.45 1193.85L3754.5 1188.03L3746.55 1193.85L3749.61 1184.48L3741.59 1178.66H3751.44V1178.72ZM3874.05 1193.91L3866.1 1188.09L3858.15 1193.91L3861.21 1184.54L3853.19 1178.72H3863.04L3866.1 1169.35L3869.16 1178.78H3879.01L3870.99 1184.54L3874.05 1193.91ZM3846.28 1170.21L3838.32 1164.39L3830.37 1170.21L3833.43 1160.84L3825.41 1155.02H3835.26L3838.32 1145.65L3841.38 1155.08H3851.23L3843.22 1160.84L3846.28 1170.21ZM3846.28 1122.68L3838.32 1116.86L3830.37 1122.68L3833.43 1113.31L3825.41 1107.49H3835.26L3838.32 1098.12L3841.38 1107.55H3851.23L3843.22 1113.31L3846.28 1122.68ZM3734.68 1122.68L3726.72 1116.86L3718.77 1122.68L3721.83 1113.31L3713.81 1107.49H3723.66L3726.72 1098.12L3729.78 1107.55H3739.63L3731.62 1113.31L3734.68 1122.68ZM3713.81 1155.02H3723.66L3726.72 1145.65L3729.78 1155.08H3739.63L3731.62 1160.84L3734.68 1170.21L3726.72 1164.39L3718.77 1170.21L3721.83 1160.84L3713.81 1155.02ZM3695.64 1178.72L3698.7 1169.29L3701.76 1178.72H3711.61L3703.59 1184.48L3706.65 1193.85L3698.7 1188.03L3690.75 1193.85L3693.81 1184.48L3685.79 1178.66H3695.64V1178.72ZM3726.72 1193.18L3729.78 1202.61H3739.63L3731.62 1208.37L3734.68 1217.74L3726.72 1211.92L3718.77 1217.74L3721.83 1208.37L3713.81 1202.55H3723.66L3726.72 1193.18ZM3734.68 1265.21L3726.72 1259.39L3718.77 1265.21L3721.83 1255.83L3713.81 1250.02H3723.66L3726.72 1240.65L3729.78 1250.08H3739.63L3731.62 1255.83L3734.68 1265.21ZM3749.61 1232.07L3741.59 1226.25H3751.44L3754.5 1216.88L3757.56 1226.31H3767.41L3759.39 1232.07L3762.45 1241.44L3754.5 1235.62L3746.55 1241.44L3749.61 1232.07ZM3805.41 1232.07L3797.39 1226.25H3807.24L3810.3 1216.88L3813.36 1226.31H3823.21L3815.19 1232.07L3818.25 1241.44L3810.3 1235.62L3802.35 1241.44L3805.41 1232.07ZM3861.14 1232.07L3853.13 1226.25H3862.98L3866.04 1216.88L3869.1 1226.31H3878.95L3870.93 1232.07L3873.99 1241.44L3866.04 1235.62L3858.08 1241.44L3861.14 1232.07ZM3902.08 1265.21L3894.12 1259.39L3886.17 1265.21L3889.23 1255.83L3881.21 1250.02H3891.06L3894.12 1240.65L3897.18 1250.08H3907.03L3899.02 1255.83L3902.08 1265.21ZM3897.12 1202.61H3906.97L3898.96 1208.37L3902.02 1217.74L3894.06 1211.92L3886.11 1217.74L3889.17 1208.37L3881.15 1202.55H3891L3894.06 1193.18L3897.12 1202.61ZM3929.92 1193.91L3921.96 1188.09L3914.01 1193.91L3917.07 1184.54L3909.05 1178.72H3918.9L3921.96 1169.35L3925.02 1178.78H3934.87L3926.86 1184.54L3929.92 1193.91ZM3902.08 1170.21L3894.12 1164.39L3886.17 1170.21L3889.23 1160.84L3881.21 1155.02H3891.06L3894.12 1145.65L3897.18 1155.08H3907.03L3899.02 1160.84L3902.08 1170.21ZM3929.92 1146.38L3921.96 1140.56L3914.01 1146.38L3917.07 1137.01L3909.05 1131.19H3918.9L3921.96 1121.82L3925.02 1131.25H3934.87L3926.86 1137.01L3929.92 1146.38ZM3918.9 1083.66L3921.96 1074.23L3925.02 1083.66H3934.87L3926.86 1089.42L3929.92 1098.79L3921.96 1092.97L3914.01 1098.79L3917.07 1089.42L3909.05 1083.6H3918.9V1083.66ZM3863.04 1083.66L3866.1 1074.23L3869.16 1083.66H3879.01L3870.99 1089.42L3874.05 1098.79L3866.1 1092.97L3858.15 1098.79L3861.21 1089.42L3853.19 1083.6H3863.04V1083.66ZM3807.24 1083.66L3810.3 1074.23L3813.36 1083.66H3823.21L3815.19 1089.42L3818.25 1098.79L3810.3 1092.97L3802.35 1098.79L3805.41 1089.42L3797.39 1083.6H3807.24V1083.66ZM3751.44 1083.66L3754.5 1074.23L3757.56 1083.66H3767.41L3759.39 1089.42L3762.45 1098.79L3754.5 1092.97L3746.55 1098.79L3749.61 1089.42L3741.59 1083.6H3751.44V1083.66ZM3695.64 1083.66L3698.7 1074.23L3701.76 1083.66H3711.61L3703.59 1089.42L3706.65 1098.79L3698.7 1092.97L3690.75 1098.79L3693.81 1089.42L3685.79 1083.6H3695.64V1083.66ZM3629.93 1083.66H3639.78L3642.84 1074.29L3645.9 1083.72H3655.75L3647.73 1089.48L3650.79 1098.85L3642.84 1093.03L3634.88 1098.85L3637.94 1089.48L3629.93 1083.66ZM3629.93 1131.19H3639.78L3642.84 1121.82L3645.9 1131.25H3655.75L3647.73 1137.01L3650.79 1146.38L3642.84 1140.56L3634.88 1146.38L3637.94 1137.01L3629.93 1131.19ZM3657.95 1155.02H3667.8L3670.86 1145.65L3673.92 1155.08H3683.77L3675.76 1160.84L3678.82 1170.21L3670.86 1164.39L3662.91 1170.21L3665.97 1160.84L3657.95 1155.02ZM3650.79 1193.91L3642.84 1188.09L3634.88 1193.91L3637.94 1184.54L3629.93 1178.72H3639.78L3642.84 1169.35L3645.9 1178.78H3655.75L3647.73 1184.54L3650.79 1193.91ZM3670.8 1193.18L3673.86 1202.61H3683.71L3675.69 1208.37L3678.75 1217.74L3670.8 1211.92L3662.85 1217.74L3665.91 1208.37L3657.89 1202.55H3667.74L3670.8 1193.18ZM3629.93 1226.25H3639.78L3642.84 1216.88L3645.9 1226.31H3655.75L3647.73 1232.07L3650.79 1241.44L3642.84 1235.62L3634.88 1241.44L3637.94 1232.07L3629.93 1226.25ZM3650.79 1288.91L3642.84 1283.09L3634.88 1288.91L3637.94 1279.54L3629.93 1273.72H3639.78L3642.84 1264.35L3645.9 1273.78H3655.75L3647.73 1279.54L3650.79 1288.91ZM3706.65 1288.91L3698.7 1283.09L3690.75 1288.91L3693.81 1279.54L3685.79 1273.72H3695.64L3698.7 1264.35L3701.76 1273.78H3711.61L3703.59 1279.54L3706.65 1288.91ZM3762.45 1288.91L3754.5 1283.09L3746.55 1288.91L3749.61 1279.54L3741.59 1273.72H3751.44L3754.5 1264.35L3757.56 1273.78H3767.41L3759.39 1279.54L3762.45 1288.91ZM3818.25 1288.91L3810.3 1283.09L3802.35 1288.91L3805.41 1279.54L3797.39 1273.72H3807.24L3810.3 1264.35L3813.36 1273.78H3823.21L3815.19 1279.54L3818.25 1288.91ZM3874.05 1288.91L3866.1 1283.09L3858.15 1288.91L3861.21 1279.54L3853.19 1273.72H3863.04L3866.1 1264.35L3869.16 1273.78H3879.01L3870.99 1279.54L3874.05 1288.91ZM3924.96 1273.72H3934.81L3926.79 1279.48L3929.85 1288.85L3921.9 1283.03L3913.95 1288.85L3917.01 1279.48L3908.99 1273.66H3918.84L3921.9 1264.29L3924.96 1273.72Z" fill="white"/>
</g>
<defs>
<clipPath id="clip0_46_357">
<rect width="854" height="358" fill="white" transform="translate(3598 522)"/>
</clipPath>
<clipPath id="clip1_46_357">
<rect width="2064" height="255" fill="white" transform="translate(57 1268)"/>
</clipPath>
<clipPath id="clip2_46_357">
<rect width="837" height="441" fill="white" transform="translate(3615 1064)"/>
</clipPath>
</defs>
</svg>
