<svg width="576" height="419" viewBox="0 0 576 419" fill="none" xmlns="http://www.w3.org/2000/svg">
<g clip-path="url(#clip0_48_519)">
<path d="M557.766 52.0656C497.013 49.5907 428.931 83.0484 389.254 110.364C367.629 125.214 340.781 135.297 316.498 141.439L298.538 103.49C323.37 97.4397 350.952 87.2649 373.127 71.9569C412.803 44.6408 480.978 11.1831 541.638 13.6581C549.061 13.9331 565.463 14.5747 570.136 15.4914V52.7073C565.829 52.4323 562.989 52.4323 557.766 52.0656Z" fill="#ED1C24"/>
<path d="M423.616 0C399.333 10.5415 377.525 23.1912 360.756 34.741C337.206 50.874 307.609 61.4154 281.769 67.557L264.084 29.5161C288.275 23.8329 315.856 14.483 338.856 0.0916648H423.707L423.616 0Z" fill="#ED1C24"/>
<path d="M0.0916322 326.969C37.8441 323.852 101.528 309.461 143.863 277.653C188.487 244.195 238.06 224.304 293.773 224.304C321.079 224.304 378.074 213.121 417.66 185.896C453.854 161.055 513.782 130.989 570.044 127.781V89.1899C509.292 86.715 441.209 120.173 401.532 147.489C361.856 174.805 304.86 185.896 277.646 185.896C221.842 185.896 172.36 205.696 127.735 239.154C90.8991 266.745 38.0274 281.228 0 286.636V326.877L0.0916322 326.969Z" fill="#ED1C24"/>
<path d="M0.183429 247.495C36.653 240.895 82.5608 226.687 115.365 202.029C159.99 168.572 209.563 148.772 265.275 148.772C277.646 148.772 296.155 146.48 316.406 141.439L250.156 0H0.0917969V247.495H0.183429Z" fill="#17479E"/>
<path d="M199.209 334.76C236.32 312.76 276.73 299.927 321.08 299.927C348.294 299.927 405.289 288.744 444.966 261.52C475.296 240.62 522.395 216.146 570.044 206.888V165.913C517.172 172.055 462.651 199.829 428.839 223.021C389.162 250.337 332.167 261.428 304.952 261.428C249.148 261.428 199.667 281.228 155.042 314.685C144.962 322.202 133.692 328.802 121.871 334.485L199.209 334.668V334.76Z" fill="#ED1C24"/>
<path d="M475.938 334.668C500.22 318.444 534.033 300.477 570.044 289.478L570.227 246.578C526.427 257.211 484.185 279.578 456.237 298.827C427.281 318.719 388.979 330.085 359.84 334.76H476.029L475.938 334.668Z" fill="#ED1C24"/>
<path d="M25.3816 208.354L26.7561 197.996L34.3616 205.146L44.716 203.679L39.9512 212.937L44.716 222.104L34.5449 220.546L26.7561 227.787L25.1984 217.429L16.0352 212.846L25.3816 208.354Z" fill="white"/>
<path d="M80.5447 187.271L81.9192 177.005L89.5247 184.063L99.7875 182.596L95.1142 191.854L99.7875 201.021L89.7079 199.463L81.9192 206.704L80.3615 196.346L71.1982 191.763L80.5447 187.271Z" fill="white"/>
<path d="M131.95 157.572L133.324 147.214L140.93 154.364L151.193 152.897L146.52 162.155L151.193 171.23L141.113 169.763L133.324 176.913L131.767 166.647L122.604 162.063L131.95 157.572Z" fill="white"/>
<path d="M188.304 130.256L189.678 119.989L197.375 127.047L207.638 125.581L202.873 134.839L207.638 144.005L197.467 142.447L189.678 149.689L188.212 139.331L179.049 134.747L188.304 130.256Z" fill="white"/>
<path d="M255.195 120.356L256.661 109.998L264.267 117.148L274.53 115.681L269.856 124.939L274.53 134.106L264.359 132.547L256.661 139.789L255.104 129.431L245.94 124.848L255.195 120.356Z" fill="white"/>
<path d="M211.853 90.0149L213.228 79.6567L220.833 86.8066L231.188 85.34L226.423 94.5981L231.188 103.673L221.017 102.206L213.228 109.356L211.762 99.0897L202.599 94.5065L211.853 90.0149Z" fill="white"/>
<path d="M144.962 103.031L146.336 92.6731L153.942 99.823L164.204 98.3563L159.531 107.614L164.204 116.689L154.125 115.223L146.336 122.373L144.778 112.106L135.615 107.523L144.962 103.031Z" fill="white"/>
<path d="M89.1582 132.731L90.6243 122.464L98.2298 129.522L108.493 128.056L103.819 137.314L108.493 146.48L98.3214 144.922L90.6243 152.164L89.0665 141.897L79.9033 137.314L89.1582 132.731Z" fill="white"/>
<path d="M37.1113 163.163L38.5774 152.805L46.1829 159.955L56.4457 158.489L51.7724 167.655L56.4457 176.821L46.2745 175.263L38.5774 182.505L37.0197 172.238L27.8564 167.655L37.1113 163.163Z" fill="white"/>
<path d="M0.0917969 123.014L7.7889 130.164L18.0517 128.697L13.2868 137.956L18.0517 147.122L7.88053 145.564L0.0917969 152.805V123.014Z" fill="white"/>
<path d="M50.7646 111.098L52.1391 100.74L59.8362 107.889L70.099 106.423L65.3341 115.589L70.099 124.756L59.9278 123.289L52.1391 130.439L50.673 120.173L41.5098 115.589L50.7646 111.098Z" fill="white"/>
<path d="M103.453 80.1151L104.827 69.757L112.433 76.9068L122.696 75.4402L118.022 84.6067L122.696 93.7731L112.616 92.2148L104.827 99.4564L103.27 89.1899L94.1064 84.6067L103.453 80.1151Z" fill="white"/>
<path d="M159.165 52.7989L160.631 42.4408L168.237 49.5907L178.499 48.124L173.826 57.3822L178.499 66.5487L168.328 64.9903L160.631 72.2319L159.073 61.8737L149.91 57.2905L159.165 52.7989Z" fill="white"/>
<path d="M226.698 44.0908L228.164 33.8243L235.77 40.9742L246.033 39.4159L241.359 48.674L246.033 57.8405L235.861 56.2822L228.164 63.5237L226.607 53.2573L217.443 48.674L226.698 44.0908Z" fill="white"/>
<path d="M211.853 0L208.463 6.5082L213.228 15.6747L203.057 14.2081L195.268 21.3579L193.71 11.0914L184.639 6.5082L193.894 2.01663L194.168 0H211.853Z" fill="white"/>
<path d="M127.002 13.108L128.376 2.84155L135.982 9.89975L146.245 8.43311L141.571 17.6913L146.245 26.8577L136.165 25.2994L128.376 32.541L126.818 22.2745L117.655 17.6913L127.002 13.108Z" fill="white"/>
<path d="M72.4812 42.8991L73.8557 32.541L81.4612 39.6909L91.724 38.2242L87.0508 47.4824L91.724 56.5572L81.6445 55.0906L73.8557 62.2404L72.298 51.974L63.1348 47.3907L72.4812 42.8991Z" fill="white"/>
<path d="M18.6014 73.8818L19.9759 63.5237L27.5813 70.6735L37.8441 69.2069L33.1709 78.4651L37.8441 87.5399L27.7646 86.0732L19.9759 93.3148L18.4181 82.9566L9.25488 78.3734L18.6014 73.8818Z" fill="white"/>
<path d="M35.9197 16.2247L37.2942 5.86658L44.8997 13.0164L55.1625 11.5498L50.4892 20.8079L55.1625 29.9744L45.0829 28.4161L37.2942 35.6577L35.7365 25.2995L26.5732 20.7163L35.9197 16.2247Z" fill="white"/>
<path d="M69.6407 417.625H52.2306V381.142L42.8841 417.625H28.8644L19.5179 381.142V417.625H2.29102V355.018H27.5815L35.92 388.659L44.6251 355.018H69.6407V417.625Z" fill="white"/>
<path d="M95.2062 419C85.2183 419 78.9873 414.05 78.9873 405.984C78.9873 400.85 81.8279 396.45 86.3179 394.342C89.1585 393.059 92.4572 392.142 98.1384 391.134C107.485 389.484 109.134 388.659 109.134 385.909C109.134 383.617 106.935 382.242 103.545 382.242C99.4213 382.242 97.0388 383.892 97.0388 386.734V387.742H80.9116C81.6446 376.193 88.3338 371.151 102.903 371.151C110.234 371.151 115.915 372.343 119.672 374.726C124.162 377.476 125.903 381.509 125.903 388.934V408.367C125.903 413.5 126.728 415.7 129.202 417.625H110.784C110.051 416.342 109.501 414.05 109.409 412.583C105.744 417.258 101.804 419.092 95.2978 419.092L95.2062 419ZM100.154 400.3C96.4891 401.217 95.0229 402.5 95.0229 404.609C95.0229 406.717 97.1305 408.367 100.154 408.367C105.744 408.367 109.226 404.792 109.226 398.65V396.359C106.843 398.284 105.011 399.109 100.154 400.209V400.3Z" fill="white"/>
<path d="M183.814 417.625H167.779L167.321 412.125C164.205 417.075 160.357 419.092 153.942 419.092C144.962 419.092 139.098 415.058 135.891 406.717C134.608 403.05 133.783 399.2 133.783 395.259C133.783 381.051 141.847 371.243 153.484 371.243C158.982 371.243 163.197 373.259 166.771 377.659V355.201H183.723V417.808L183.814 417.625ZM158.89 383.984C154.126 383.984 151.102 388.201 151.102 394.892C151.102 401.584 154.034 405.525 158.616 405.525C163.472 405.525 166.771 401.217 166.771 394.801C166.771 388.384 163.655 383.984 158.89 383.984Z" fill="white"/>
<path d="M208.83 399.475C209.471 404.334 212.77 407.175 217.718 407.175C220.65 407.175 222.758 406.075 224.315 403.875L240.901 404.15C239.526 408.092 238.518 409.65 236.411 411.85C231.829 416.342 224.499 419 216.802 419C202.049 419 191.694 409.1 191.694 394.892C191.694 381.326 202.232 371.151 216.252 371.151C231.921 371.151 241.909 382.151 242 399.475H208.83ZM216.893 382.884C212.586 382.884 209.471 385.634 208.921 390.034H224.499C224.041 385.451 221.292 382.884 216.893 382.884Z" fill="white"/>
<path d="M293.406 367.118H276.454V355.018H293.406V367.118ZM293.406 417.625H276.454V372.526H293.406V417.625Z" fill="white"/>
<path d="M319.797 379.126C323.646 373.351 327.586 371.151 334.367 371.151C344.171 371.151 350.494 377.751 350.494 387.651V417.625H334.092V391.867C334.092 387.834 331.709 385.359 327.861 385.359C323.096 385.359 320.53 388.567 320.53 394.526V417.533H303.578V372.434H319.43L319.797 379.034V379.126Z" fill="white"/>
<path d="M444.967 393.059C444.967 401.859 443.134 406.9 438.644 411.483C433.329 416.8 426.915 419 416.652 419C408.222 419 402.083 417.625 397.226 414.783C389.896 410.384 387.238 404.425 387.238 392.417V355.018H406.206V393.059C406.206 400.484 409.23 403.784 416.102 403.784C422.425 403.784 425.724 400.025 425.724 393.059V355.018H444.875V393.059H444.967Z" fill="white"/>
<path d="M488.125 373.718C487.117 369.868 484.918 368.401 480.153 368.401C476.213 368.401 473.647 369.868 473.647 372.068C473.647 374.268 475.205 375.001 483.452 376.926L489.683 378.392C502.786 381.601 509.384 388.109 509.384 397.825C509.384 410.384 498.022 419 481.253 419C464.484 419 452.938 410.567 452.938 398.375V397.459L471.998 397.092C472.914 402.684 475.663 404.792 481.711 404.792C486.659 404.792 489.775 402.867 489.775 399.934C489.775 397.367 488.767 396.725 482.627 394.984L477.862 393.609C466.867 390.401 462.651 388.476 459.261 385.084C456.42 382.151 454.863 377.934 454.863 373.259C454.863 360.976 464.026 353.826 479.878 353.826C497.472 353.826 505.535 359.785 506.818 373.626L488.217 373.901L488.125 373.718Z" fill="white"/>
<path d="M530.001 417.625H511.308L534.216 355.018H553.092L576 417.625H556.849L553.825 408.825H532.933L529.909 417.625H530.001ZM549.61 395.809L543.837 377.384L537.423 395.809H549.61Z" fill="white"/>
</g>
<defs>
<clipPath id="clip0_48_519">
<rect width="576" height="419" fill="white"/>
</clipPath>
</defs>
</svg>
